<svg width="369" height="247" viewBox="0 0 369 247" fill="none" xmlns="http://www.w3.org/2000/svg">
<g clip-path="url(#clip0_53_485)">
<path d="M2.46986 0L0.493959 38.532C-1.97592 85.462 9.38552 132.392 33.0964 172.9L38.5301 181.792L192.651 176.358L182.277 159.068C159.554 122.018 147.699 79.04 147.205 35.568V0L2.46986 0Z" fill="white"/>
<path d="M45.2113 27.9291L24.9644 28.3956L25.4309 48.6436L45.6778 48.177L45.2113 27.9291Z" stroke="#00000C" stroke-miterlimit="10" stroke-linecap="round" stroke-linejoin="round"/>
<path d="M30.1323 37.05L34.5781 41.002L49.8914 22.724" stroke="#00000C" stroke-miterlimit="10" stroke-linecap="round" stroke-linejoin="round"/>
<path d="M64.7109 28.158L119.542 26.676" stroke="#00000C" stroke-miterlimit="10" stroke-linecap="round" stroke-linejoin="round"/>
<path d="M65.2046 37.544L120.036 36.062" stroke="#00000C" stroke-miterlimit="10" stroke-linecap="round" stroke-linejoin="round"/>
<path d="M65.2046 46.93L86.9395 46.436" stroke="#00000C" stroke-miterlimit="10" stroke-linecap="round" stroke-linejoin="round"/>
<path d="M49.8917 91.8839L30.1326 92.3779L28.1567 72.1239L48.4098 71.6299L49.8917 91.8839Z" stroke="#00000C" stroke-miterlimit="10" stroke-linecap="round" stroke-linejoin="round"/>
<path d="M34.0845 81.0159L38.5303 84.9679L52.8556 66.6899" stroke="#00000C" stroke-miterlimit="10" stroke-linecap="round" stroke-linejoin="round"/>
<path d="M68.1689 72.124L122.506 70.642" stroke="#00000C" stroke-miterlimit="10" stroke-linecap="round" stroke-linejoin="round"/>
<path d="M68.6626 81.51L123.494 80.028" stroke="#00000C" stroke-miterlimit="10" stroke-linecap="round" stroke-linejoin="round"/>
<path d="M69.6509 90.896L91.3858 90.402" stroke="#00000C" stroke-miterlimit="10" stroke-linecap="round" stroke-linejoin="round"/>
<path d="M61.747 136.838L41.494 137.332L38.0361 117.572L58.2891 117.078L61.747 136.838Z" stroke="#00000C" stroke-miterlimit="10" stroke-linecap="round" stroke-linejoin="round"/>
<path d="M44.458 125.97L49.3978 129.922L62.2411 111.644" stroke="#00000C" stroke-miterlimit="10" stroke-linecap="round" stroke-linejoin="round"/>
<path d="M78.0483 117.078L132.88 116.09" stroke="#00000C" stroke-miterlimit="10" stroke-linecap="round" stroke-linejoin="round"/>
<path d="M79.5303 126.464L134.362 125.476" stroke="#00000C" stroke-miterlimit="10" stroke-linecap="round" stroke-linejoin="round"/>
<path d="M81.0122 135.85L103.241 135.356" stroke="#00000C" stroke-miterlimit="10" stroke-linecap="round" stroke-linejoin="round"/>
<path d="M368.737 133.281L176.667 89.0112L150.372 203.104L342.443 247.374L368.737 133.281Z" fill="#527FFA"/>
<path d="M359.615 137.826L271.193 172.406C262.795 175.864 253.41 173.394 246.988 166.972L182.277 97.318" stroke="#00000C" stroke-miterlimit="10" stroke-linecap="round"/>
<path d="M159.061 197.106L244.024 164.008" stroke="#00000C" stroke-miterlimit="10" stroke-linecap="round"/>
<path d="M337.386 238.602L275.639 171.418" stroke="#00000C" stroke-miterlimit="10" stroke-linecap="round"/>
<path d="M180.795 103.246L160.542 191.672" stroke="#A386F7" stroke-miterlimit="10" stroke-linecap="round"/>
<path d="M359.121 144.248L338.868 233.168" stroke="#A386F7" stroke-miterlimit="10" stroke-linecap="round"/>
</g>
<defs>
<clipPath id="clip0_53_485">
<rect width="369" height="247" fill="white"/>
</clipPath>
</defs>
</svg>
