<svg width="25" height="25" viewBox="0 0 25 25" fill="none" xmlns="http://www.w3.org/2000/svg">
<rect width="25" height="25" rx="12.5" fill="white"/>
<path d="M17.5 12.9652V16.4126H15.4821V13.1755C15.4821 12.3767 15.1878 11.8302 14.4731 11.8302C13.9266 11.8302 13.5902 12.2085 13.4641 12.5448C13.4221 12.671 13.38 12.8391 13.38 13.0493V16.4126H11.3621C11.3621 16.4126 11.4041 10.9473 11.3621 10.4008H13.38V11.2416C13.6323 10.8212 14.1368 10.2326 15.1878 10.2326C16.491 10.2326 17.5 11.1155 17.5 12.9652ZM9.26009 7.5C8.58744 7.5 8.125 7.96244 8.125 8.55101C8.125 9.13957 8.5454 9.60202 9.21805 9.60202C9.93274 9.60202 10.3531 9.13957 10.3531 8.55101C10.3952 7.9204 9.97477 7.5 9.26009 7.5ZM8.25112 16.4126H10.2691V10.4008H8.25112V16.4126Z" fill="#3D5397"/>
</svg>
