<svg width="40" height="40" viewBox="0 0 40 40" fill="none" xmlns="http://www.w3.org/2000/svg">
<circle cx="20" cy="20" r="19.5" stroke="#E5EAF1"/>
<path fill-rule="evenodd" clip-rule="evenodd" d="M24.0316 22.8997C25.0173 21.6674 25.6068 20.1043 25.6068 18.4035C25.6068 14.4252 22.3817 11.2002 18.4035 11.2002C14.4252 11.2002 11.2002 14.4252 11.2002 18.4035C11.2002 22.3817 14.4252 25.6068 18.4035 25.6068C20.1043 25.6068 21.6674 25.0173 22.8997 24.0316L27.4339 28.5658C27.7464 28.8783 28.2532 28.8783 28.5658 28.5658C28.8783 28.2532 28.8783 27.7465 28.5658 27.4339L24.0316 22.8997ZM18.4035 24.0141C15.3048 24.0141 12.7929 21.5021 12.7929 18.4035C12.7929 15.3048 15.3048 12.7929 18.4035 12.7929C21.5021 12.7929 24.0141 15.3048 24.0141 18.4035C24.0141 21.5021 21.5021 24.0141 18.4035 24.0141Z" fill="#282526"/>
</svg>
