<svg width="40" height="40" viewBox="0 0 40 40" fill="none" xmlns="http://www.w3.org/2000/svg">
<circle cx="20" cy="20" r="19.5" stroke="#E5EAF1"/>
<path fill-rule="evenodd" clip-rule="evenodd" d="M11.9997 11.2C11.5579 11.2 11.1997 11.5581 11.1997 12C11.1997 12.4418 11.5579 12.8 11.9997 12.8H12.9751L15.8265 24.2055C14.9859 24.5788 14.3997 25.4209 14.3997 26.4C14.3997 27.7254 15.4742 28.8 16.7997 28.8C18.1252 28.8 19.1997 27.7254 19.1997 26.4C19.1997 26.1194 19.1516 25.8502 19.0631 25.6H22.5363C22.4478 25.8502 22.3997 26.1194 22.3997 26.4C22.3997 27.7254 23.4742 28.8 24.7997 28.8C26.1252 28.8 27.1997 27.7254 27.1997 26.4C27.1997 25.0745 26.1252 24 24.7997 24H17.4243L17.0243 22.4H24.7997C26.451 22.4 27.4412 21.3567 27.9907 20.2046C28.5276 19.0789 28.7145 17.7335 28.7797 16.7549C28.8705 15.3921 27.7439 14.4 26.4966 14.4H15.0243L14.5273 12.4119C14.3492 11.6996 13.7093 11.2 12.9751 11.2H11.9997ZM24.7997 20.8H16.6243L15.4243 16H26.4966C26.939 16 27.2048 16.3253 27.1832 16.6486C27.1224 17.5617 26.9522 18.6654 26.5465 19.5158C26.1535 20.34 25.6158 20.8 24.7997 20.8ZM24.7997 27.195C24.3606 27.195 24.0046 26.8391 24.0046 26.4C24.0046 25.9609 24.3606 25.6049 24.7997 25.6049C25.2388 25.6049 25.5948 25.9609 25.5948 26.4C25.5948 26.8391 25.2388 27.195 24.7997 27.195ZM16.0046 26.4C16.0046 26.8391 16.3606 27.195 16.7997 27.195C17.2388 27.195 17.5948 26.8391 17.5948 26.4C17.5948 25.9609 17.2388 25.6049 16.7997 25.6049C16.3606 25.6049 16.0046 25.9609 16.0046 26.4Z" fill="#282526"/>
</svg>
