<svg width="40" height="40" viewBox="0 0 40 40" fill="none" xmlns="http://www.w3.org/2000/svg">
<circle cx="20" cy="20" r="19.5" stroke="#E5EAF1"/>
<path fill-rule="evenodd" clip-rule="evenodd" d="M19.9998 20C22.2089 20 23.9998 18.03 23.9998 15.6C23.9998 13.1699 22.2089 11.2 19.9998 11.2C17.7907 11.2 15.9998 13.1699 15.9998 15.6C15.9998 18.03 17.7907 20 19.9998 20ZM19.9998 18.24C18.6743 18.24 17.5998 17.058 17.5998 15.6C17.5998 14.1419 18.6743 12.96 19.9998 12.96C21.3253 12.96 22.3998 14.1419 22.3998 15.6C22.3998 17.058 21.3253 18.24 19.9998 18.24Z" fill="#282526"/>
<path fill-rule="evenodd" clip-rule="evenodd" d="M25.6821 21.6869C25.0082 21.0107 23.9654 20.8648 23.1327 21.3589C22.9804 21.4493 22.8463 21.532 22.7227 21.6083C22.3947 21.8107 22.1402 21.9678 21.8121 22.1026C21.3998 22.272 20.8666 22.4 19.9998 22.4C19.1413 22.4 18.5992 22.2792 18.1807 22.1157C17.8106 21.9712 17.5184 21.7896 17.1333 21.5502C17.0582 21.5036 16.9794 21.4546 16.896 21.4034C16.0605 20.8905 14.9875 21.0097 14.2911 21.7135C13.9874 22.0205 13.6321 22.4175 13.3477 22.8501C13.0766 23.2624 12.7998 23.811 12.7998 24.4V26.4002C12.7998 27.7258 13.8745 28.8 15.1998 28.8H24.7998C26.1251 28.8 27.1998 27.7258 27.1998 26.4002V24.4C27.1998 23.8032 26.9156 23.2473 26.6394 22.8312C26.3494 22.3941 25.988 21.9938 25.6821 21.6869ZM23.9492 22.7349C24.1405 22.6214 24.3822 22.6492 24.5488 22.8164C24.817 23.0854 25.0977 23.4017 25.3063 23.716C25.5289 24.0513 25.5998 24.2816 25.5998 24.4V26.4002C25.5998 26.8419 25.2418 27.2 24.7998 27.2H15.1998C14.7578 27.2 14.3998 26.8419 14.3998 26.4002V24.4C14.3998 24.2839 14.4682 24.0583 14.6847 23.729C14.8879 23.4198 15.1627 23.1075 15.4284 22.8389C15.5951 22.6704 15.8486 22.6379 16.0589 22.767C16.1251 22.8076 16.1925 22.8497 16.2614 22.8927C16.6473 23.1336 17.0792 23.4032 17.5985 23.6061C18.2342 23.8544 18.9792 24 19.9998 24C21.04 24 21.7848 23.8436 22.4202 23.5826C22.8803 23.3935 23.2862 23.1425 23.6445 22.9209C23.7501 22.8556 23.8516 22.7928 23.9492 22.7349Z" fill="#282526"/>
</svg>
