<svg width="25" height="25" viewBox="0 0 25 25" fill="none" xmlns="http://www.w3.org/2000/svg">
<rect width="25" height="25" rx="12.5" fill="white"/>
<path fill-rule="evenodd" clip-rule="evenodd" d="M7.03906 16.9105C6.79389 16.838 6.5702 16.7089 6.38685 16.5343C6.2035 16.3596 6.06588 16.1445 5.98559 15.907C5.52683 14.6796 5.39089 9.55433 6.27444 8.54255C6.56851 8.21341 6.98368 8.01076 7.42986 7.9786C9.80015 7.7298 17.1234 7.76297 17.9645 8.06153C18.2011 8.13645 18.4172 8.26266 18.5967 8.4307C18.7762 8.59874 18.9144 8.80426 19.001 9.03185C19.5022 10.3007 19.5192 14.9118 18.933 16.1309C18.7775 16.4483 18.5172 16.7053 18.1939 16.8607C17.3103 17.292 8.21146 17.2837 7.03906 16.9105ZM10.8026 14.5054L15.0505 12.3492L10.8026 10.1763V14.5054Z" fill="#3D5397"/>
</svg>
