<svg width="20" height="20" viewBox="0 0 20 20" fill="none" xmlns="http://www.w3.org/2000/svg">
<path fill-rule="evenodd" clip-rule="evenodd" d="M1.5998 0.800091C1.15798 0.800091 0.799805 1.15826 0.799805 1.60009C0.799805 2.04192 1.15798 2.40009 1.5998 2.40009H2.57518L5.42657 13.8056C4.58601 14.179 3.9998 15.0211 3.9998 16.0001C3.9998 17.3256 5.07432 18.4001 6.39981 18.4001C7.72529 18.4001 8.79981 17.3256 8.79981 16.0001C8.79981 15.7196 8.75168 15.4503 8.66324 15.2001H12.1364C12.0479 15.4503 11.9998 15.7196 11.9998 16.0001C11.9998 17.3256 13.0743 18.4001 14.3998 18.4001C15.7253 18.4001 16.7998 17.3256 16.7998 16.0001C16.7998 14.6746 15.7253 13.6001 14.3998 13.6001H7.02443L6.62443 12.0001H14.3998C16.0511 12.0001 17.0413 10.9568 17.5908 9.80477C18.1277 8.67907 18.3146 7.33362 18.3798 6.35504C18.4706 4.9922 17.344 4.00009 16.0967 4.00009H4.62443L4.12741 2.01203C3.94934 1.29977 3.30937 0.800091 2.57518 0.800091H1.5998ZM14.3998 10.4001H6.22443L5.02443 5.60009H16.0967C16.5391 5.60009 16.8049 5.92549 16.7833 6.24872C16.7225 7.16185 16.5523 8.26552 16.1466 9.11599C15.7536 9.94014 15.2159 10.4001 14.3998 10.4001ZM14.3998 16.7952C13.9607 16.7952 13.6047 16.4392 13.6047 16.0001C13.6047 15.561 13.9607 15.205 14.3998 15.205C14.8389 15.205 15.1949 15.561 15.1949 16.0001C15.1949 16.4392 14.8389 16.7952 14.3998 16.7952ZM5.60474 16.0001C5.60474 16.4392 5.9607 16.7952 6.39981 16.7952C6.83891 16.7952 7.19487 16.4392 7.19487 16.0001C7.19487 15.561 6.83891 15.205 6.39981 15.205C5.9607 15.205 5.60474 15.561 5.60474 16.0001Z" fill="white"/>
</svg>
