<svg width="50" height="50" viewBox="0 0 50 50" fill="none" xmlns="http://www.w3.org/2000/svg">
<path d="M7.77778 5C7.34939 5 7 5.35039 7 5.78V39.32C7 39.7527 7.34939 40.1 7.77778 40.1H23.1875C24.8221 41.0841 26.7361 41.66 28.7778 41.66C31.503 41.66 33.9883 40.6423 35.8993 38.9787L40.9062 44L42 42.9031L37.0174 37.8819C38.6701 35.9654 39.6667 33.467 39.6667 30.74C39.6667 27.038 37.8164 23.7718 35 21.7944V5.78C35 5.35039 34.6536 5 34.2222 5H7.77778ZM14 12.8H28.7778V14.36H14V12.8ZM14 17.48H28.7778V19.04H14V17.48ZM28.7778 21.38C33.9245 21.38 38.1111 25.5786 38.1111 30.74C38.1111 35.9014 33.9245 40.1 28.7778 40.1C23.6311 40.1 19.4444 35.9014 19.4444 30.74C19.4444 25.5786 23.6311 21.38 28.7778 21.38ZM14 22.16H22.0694C21.48 22.6231 20.9484 23.1472 20.4653 23.72H14V22.16ZM22.5556 26.06C22.0117 26.7608 21.6228 27.5408 21.3889 28.4H32.6667V26.06H22.5556ZM14 26.84H18.6181C18.4266 27.3427 18.2504 27.8637 18.1319 28.4H14V26.84ZM14 31.52H17.9375C17.977 32.0532 18.0438 32.5712 18.1562 33.08H14V31.52ZM21.1458 32.3C21.3008 33.1592 21.6319 33.9392 22.0208 34.64H32.6667V32.3H21.1458Z" fill="#1EC0D4"/>
</svg>
