<svg width="1920" height="1080" viewBox="0 0 1920 1080" fill="none" xmlns="http://www.w3.org/2000/svg">
<g opacity="0.05">
<path d="M1865.73 799.633C1862.17 735.245 1823.12 545.519 1754.15 404.299C1654.62 200.52 1332 0 1332 0C1332 0 1641.33 94.5539 1818 304.04C2020.7 544.399 1948.91 757.987 1923.71 836.258C1903.18 900.01 1852.9 994.446 1852.9 994.446C1852.9 994.446 1869.62 870.142 1865.73 799.633Z" fill="url(#paint0_linear_106_984)"/>
<g filter="url(#filter0_b_106_984)">
<path d="M1942.18 514.937C1833.98 145.379 1332 0 1332 0C1332 0 1566.59 117.618 1585.06 417.717C1595.8 592.118 1437.9 790.943 1437.9 790.943C1437.9 790.943 1789.23 561.072 1907.7 682.189C1983.51 759.692 1864.49 970.808 1864.49 970.808C1864.49 970.808 2009.54 745.02 1942.18 514.937Z" fill="url(#paint1_linear_106_984)"/>
</g>
<g filter="url(#filter1_b_106_984)">
<path d="M482.301 902.738C366.103 602.219 -173 484 -173 484C-173 484 78.9371 579.645 98.7747 823.68C110.303 965.501 -59.2646 1127.18 -59.2646 1127.18C-59.2646 1127.18 318.045 940.254 445.271 1038.74C526.684 1101.77 398.863 1273.44 398.863 1273.44C398.863 1273.44 554.645 1089.84 482.301 902.738Z" fill="url(#paint2_linear_106_984)"/>
</g>
</g>
<defs>
<filter id="filter0_b_106_984" x="1320" y="-12" width="652.024" height="994.808" filterUnits="userSpaceOnUse" color-interpolation-filters="sRGB">
<feFlood flood-opacity="0" result="BackgroundImageFix"/>
<feGaussianBlur in="BackgroundImageFix" stdDeviation="6"/>
<feComposite in2="SourceAlpha" operator="in" result="effect1_backgroundBlur_106_984"/>
<feBlend mode="normal" in="SourceGraphic" in2="effect1_backgroundBlur_106_984" result="shape"/>
</filter>
<filter id="filter1_b_106_984" x="-185" y="472" width="698.465" height="813.445" filterUnits="userSpaceOnUse" color-interpolation-filters="sRGB">
<feFlood flood-opacity="0" result="BackgroundImageFix"/>
<feGaussianBlur in="BackgroundImageFix" stdDeviation="6"/>
<feComposite in2="SourceAlpha" operator="in" result="effect1_backgroundBlur_106_984"/>
<feBlend mode="normal" in="SourceGraphic" in2="effect1_backgroundBlur_106_984" result="shape"/>
</filter>
<linearGradient id="paint0_linear_106_984" x1="1852.96" y1="994.446" x2="1848.4" y2="664.794" gradientUnits="userSpaceOnUse">
<stop stop-color="#1FD5DC"/>
<stop offset="1" stop-color="#005084"/>
</linearGradient>
<linearGradient id="paint1_linear_106_984" x1="1438" y1="789.852" x2="1930.06" y2="455.096" gradientUnits="userSpaceOnUse">
<stop stop-color="#23E9E9"/>
<stop offset="1" stop-color="#157DB1"/>
</linearGradient>
<linearGradient id="paint2_linear_106_984" x1="-59.16" y1="1126.29" x2="368.576" y2="741.985" gradientUnits="userSpaceOnUse">
<stop stop-color="#23E9E9"/>
<stop offset="1" stop-color="#157DB1"/>
</linearGradient>
</defs>
</svg>
