<svg width="35" height="35" viewBox="0 0 35 35" fill="none" xmlns="http://www.w3.org/2000/svg">
<path d="M17.5 2.91675C9.44558 2.91675 2.91663 9.44571 2.91663 17.5001C2.91663 25.5545 9.44558 32.0834 17.5 32.0834C25.5543 32.0834 32.0833 25.5545 32.0833 17.5001C32.0833 9.44571 25.5543 2.91675 17.5 2.91675Z" fill="url(#paint0_linear_27_236)"/>
<path d="M19.4739 21.3653H23.2481L23.8409 17.5313H19.4739V15.4357C19.4739 13.8432 19.9945 12.4308 21.4842 12.4308H23.8781V9.08537C23.4573 9.0285 22.5677 8.90454 20.887 8.90454C17.3768 8.90454 15.3191 10.7581 15.3191 14.9814V17.532H11.7104V21.366H15.3184V31.9039C16.0329 32.0104 16.757 32.0833 17.5 32.0833C18.1716 32.0833 18.8271 32.022 19.4739 31.9345V21.3653Z" fill="white"/>
<defs>
<linearGradient id="paint0_linear_27_236" x1="7.28652" y1="7.28664" x2="29.6151" y2="29.6152" gradientUnits="userSpaceOnUse">
<stop stop-color="#2AA4F4"/>
<stop offset="1" stop-color="#007AD9"/>
</linearGradient>
</defs>
</svg>
