<svg width="45" height="77" viewBox="0 0 45 77" fill="none" xmlns="http://www.w3.org/2000/svg">
<circle cx="21.991" cy="5.41898" r="5.41898" fill="#1683B5"/>
<path d="M37.5388 63.2981C37.2886 58.7695 34.5419 45.4255 29.691 35.493C22.691 21.1605 0 7.05728 0 7.05728C0 7.05728 21.7559 13.7076 34.1817 28.4414C48.4386 45.3467 43.3891 60.3691 41.6168 65.8741C40.1732 70.358 36.6366 77 36.6366 77C36.6366 77 37.8128 68.2572 37.5388 63.2981Z" fill="url(#paint0_linear_64_19)"/>
<g filter="url(#filter0_b_64_19)">
<path d="M42.916 43.2745C35.3061 17.2822 0 7.05728 0 7.05728C0 7.05728 16.4995 15.3298 17.7986 36.4367C18.5537 48.7029 7.44858 62.6869 7.44858 62.6869C7.44858 62.6869 32.1587 46.5194 40.4908 55.0379C45.8226 60.4889 37.4516 75.3374 37.4516 75.3374C37.4516 75.3374 47.6538 59.457 42.916 43.2745Z" fill="url(#paint1_linear_64_19)"/>
</g>
<defs>
<filter id="filter0_b_64_19" x="-12" y="-4.94272" width="68.171" height="92.2801" filterUnits="userSpaceOnUse" color-interpolation-filters="sRGB">
<feFlood flood-opacity="0" result="BackgroundImageFix"/>
<feGaussianBlur in="BackgroundImageFix" stdDeviation="6"/>
<feComposite in2="SourceAlpha" operator="in" result="effect1_backgroundBlur_64_19"/>
<feBlend mode="normal" in="SourceGraphic" in2="effect1_backgroundBlur_64_19" result="shape"/>
</filter>
<linearGradient id="paint0_linear_64_19" x1="36.6412" y1="77" x2="36.3201" y2="53.8145" gradientUnits="userSpaceOnUse">
<stop stop-color="#1FD5DC"/>
<stop offset="1" stop-color="#005084"/>
</linearGradient>
<linearGradient id="paint1_linear_64_19" x1="7.45543" y1="62.6102" x2="42.0636" y2="39.0657" gradientUnits="userSpaceOnUse">
<stop stop-color="#23E9E9"/>
<stop offset="1" stop-color="#157DB1"/>
</linearGradient>
</defs>
</svg>
