<svg width="50" height="50" viewBox="0 0 50 50" fill="none" xmlns="http://www.w3.org/2000/svg">
<path d="M30.975 5.00061C30.6254 5.01076 30.2935 5.15607 30.0495 5.40576L26.8521 8.59106C26.5688 8.87329 26.2354 9.09818 25.8705 9.25292C25.8699 9.2535 25.8693 9.25408 25.8687 9.25467L19.8614 11.8183C18.183 12.5349 16.8867 13.9502 16.2941 15.7213C16.2851 15.7467 16.277 15.7723 16.2696 15.7982L15.5105 18.629C15.4907 18.647 15.4714 18.6656 15.4527 18.6848L3.39415 30.6961C3.14178 30.9476 3 31.2887 3 31.6443C3 32 3.14178 32.3411 3.39415 32.5926L15.4527 44.6073C15.7052 44.8588 16.0475 45 16.4045 45C16.7615 45 17.1039 44.8588 17.3564 44.6073L18.1925 43.7743C18.6224 43.3461 19.195 43.1133 19.8 43.1195C22.7981 43.1499 29.3552 43.2161 31.2432 43.205C33.4209 43.193 35.2808 42.2319 36.318 40.7322C37.1589 39.5165 37.3436 37.9016 36.7703 36.431C37.7645 35.26 38.0988 33.934 38.0079 32.8406C38.0462 32.8054 38.0825 32.7681 38.1166 32.7288C38.1166 32.7288 40.7227 29.8221 42.1834 28.2739C43.2576 27.1353 43.9992 25.6477 44.1204 23.8033C44.1496 23.3638 44.2647 22.6557 44.45 22.036C44.6352 21.4164 44.9437 20.8788 45.0372 20.7857L45.5911 20.2356C45.786 20.0472 45.9191 19.8046 45.9731 19.5396C46.0271 19.2745 45.9994 18.9994 45.8936 18.7503C45.7878 18.5012 45.6089 18.2898 45.3804 18.1438C45.1519 17.9978 44.8843 17.924 44.613 17.9322C44.2633 17.9423 43.9314 18.0876 43.6874 18.3373L43.1335 18.8892C42.43 19.59 42.1208 20.4312 41.8696 21.2712C41.6185 22.1111 41.4784 22.9453 41.4331 23.6269C41.3479 24.9228 40.9714 25.6423 40.2218 26.4368C39.7698 26.9159 39.2028 27.5404 38.6565 28.1377C38.6802 27.3322 38.5108 26.4339 38.0622 25.5147C38.9102 24.1686 39.2246 22.6235 38.6109 21.3166C37.8533 19.7032 36.0825 18.6064 33.9428 18.5818C32.3199 18.5623 24.7977 18.1574 24.7977 18.1574C24.5334 18.1431 24.2707 18.2067 24.0425 18.3402C23.8143 18.4738 23.6306 18.6714 23.5145 18.9084C23.5145 18.9084 21.0971 23.7214 18.4257 26.3827C18.029 26.7769 17.6388 27.0734 17.2635 27.2977C16.7885 27.5816 16.3986 27.4808 16.0469 27.1964C15.6971 26.9136 15.5215 26.5307 15.6788 26.0508L17.4212 21.8492C17.4436 21.7952 17.4623 21.7397 17.4773 21.6833L18.8517 16.5648C19.213 15.4905 19.9509 14.6987 20.9219 14.2841L26.9257 11.7205C27.6109 11.4299 28.2313 11.0101 28.7558 10.4876L31.9532 7.30402C32.148 7.11569 32.2812 6.87307 32.3352 6.608C32.3892 6.34294 32.3614 6.06781 32.2557 5.81872C32.1499 5.56962 31.971 5.35821 31.7425 5.21221C31.5139 5.06621 31.2464 4.99245 30.975 5.00061Z" fill="#1EC0D4"/>
</svg>
