<svg width="50" height="50" viewBox="0 0 50 50" fill="none" xmlns="http://www.w3.org/2000/svg">
<path d="M34.0917 6.66669C28.3333 6.66669 25 11.6667 25 11.6667C25 11.6667 21.6667 6.66669 15.9083 6.66669C9.88333 6.66669 5 11.55 5 17.575C5 21.9417 7.125 26.2234 10 30.0634V20H11.6667C12.5883 20 13.3333 20.745 13.3333 21.6667V27.6434L23.8217 17.155C24.4733 16.5034 25.5267 16.5034 26.1783 17.155C26.83 17.8067 26.83 18.86 26.1783 19.5117L19.7133 25.9767L20.69 26.9534L28.8217 18.8217C29.4733 18.17 30.5267 18.17 31.1783 18.8217C31.5033 19.1467 31.6667 19.5734 31.6667 20C31.6667 20.4267 31.5033 20.8534 31.1783 21.1784L23.0467 29.31L24.0233 30.2867L30.4883 23.8217C31.14 23.17 32.1933 23.17 32.845 23.8217C33.17 24.1467 33.3333 24.5734 33.3333 25C33.3333 25.4267 33.17 25.8534 32.845 26.1784L26.38 32.6434L27.3567 33.62L30.4883 30.4883C31.14 29.8367 32.1933 29.8367 32.845 30.4883C33.17 30.8134 33.3333 31.24 33.3333 31.6667C33.3333 32.0934 33.17 32.52 32.845 32.845L23.0233 42.6667C23.5783 43.0784 24.2567 43.3334 25 43.3334C25.7533 43.3334 26.4417 43.0733 27 42.6517L27.0067 42.6617C32.6317 38.2517 45 28.1434 45 17.575C45 11.55 40.1167 6.66669 34.0917 6.66669Z" fill="#1EC0D4"/>
</svg>
