<svg width="35" height="35" viewBox="0 0 35 35" fill="none" xmlns="http://www.w3.org/2000/svg">
<path d="M24.804 30.6177L10.2207 30.6315C7.01237 30.6344 4.38518 28.0124 4.38153 24.804L4.36768 10.2207C4.36476 7.01237 6.98685 4.38518 10.1952 4.38153L24.7785 4.36768C27.9868 4.36476 30.614 6.98685 30.6177 10.1952L30.6315 24.7785C30.6352 27.9876 28.0124 30.6148 24.804 30.6177Z" fill="url(#paint0_radial_27_242)"/>
<path d="M24.804 30.6177L10.2207 30.6315C7.01237 30.6344 4.38518 28.0124 4.38153 24.804L4.36768 10.2207C4.36476 7.01237 6.98685 4.38518 10.1952 4.38153L24.7785 4.36768C27.9868 4.36476 30.614 6.98685 30.6177 10.1952L30.6315 24.7785C30.6352 27.9876 28.0124 30.6148 24.804 30.6177Z" fill="url(#paint1_radial_27_242)"/>
<path d="M17.5 22.6041C14.6862 22.6041 12.3959 20.3145 12.3959 17.4999C12.3959 14.6853 14.6862 12.3958 17.5 12.3958C20.3139 12.3958 22.6042 14.6853 22.6042 17.4999C22.6042 20.3145 20.3139 22.6041 17.5 22.6041ZM17.5 13.8541C15.4897 13.8541 13.8542 15.4896 13.8542 17.4999C13.8542 19.5102 15.4897 21.1458 17.5 21.1458C19.5104 21.1458 21.1459 19.5102 21.1459 17.4999C21.1459 15.4896 19.5104 13.8541 17.5 13.8541Z" fill="white"/>
<path d="M22.9688 13.125C23.5728 13.125 24.0625 12.6353 24.0625 12.0312C24.0625 11.4272 23.5728 10.9375 22.9688 10.9375C22.3647 10.9375 21.875 11.4272 21.875 12.0312C21.875 12.6353 22.3647 13.125 22.9688 13.125Z" fill="white"/>
<path d="M21.875 26.9791H13.125C10.3112 26.9791 8.02087 24.6895 8.02087 21.8749V13.1249C8.02087 10.3103 10.3112 8.02075 13.125 8.02075H21.875C24.6889 8.02075 26.9792 10.3103 26.9792 13.1249V21.8749C26.9792 24.6895 24.6889 26.9791 21.875 26.9791ZM13.125 9.47909C11.1147 9.47909 9.47921 11.1146 9.47921 13.1249V21.8749C9.47921 23.8852 11.1147 25.5208 13.125 25.5208H21.875C23.8854 25.5208 25.5209 23.8852 25.5209 21.8749V13.1249C25.5209 11.1146 23.8854 9.47909 21.875 9.47909H13.125Z" fill="white"/>
<defs>
<radialGradient id="paint0_radial_27_242" cx="0" cy="0" r="1" gradientUnits="userSpaceOnUse" gradientTransform="translate(14.1312 30.6505) scale(32.7389)">
<stop stop-color="#FFDD55"/>
<stop offset="0.328" stop-color="#FF543F"/>
<stop offset="0.348" stop-color="#FC5245"/>
<stop offset="0.504" stop-color="#E64771"/>
<stop offset="0.643" stop-color="#D53E91"/>
<stop offset="0.761" stop-color="#CC39A4"/>
<stop offset="0.841" stop-color="#C837AB"/>
</radialGradient>
<radialGradient id="paint1_radial_27_242" cx="0" cy="0" r="1" gradientUnits="userSpaceOnUse" gradientTransform="translate(8.59393 4.03977) scale(21.7386 14.4845)">
<stop stop-color="#4168C9"/>
<stop offset="0.999" stop-color="#4168C9" stop-opacity="0"/>
</radialGradient>
</defs>
</svg>
