<svg width="35" height="35" viewBox="0 0 35 35" fill="none" xmlns="http://www.w3.org/2000/svg">
<path d="M30.625 26.9792C30.625 28.9931 28.9931 30.625 26.9792 30.625H8.02083C6.0076 30.625 4.375 28.9931 4.375 26.9792V8.02083C4.375 6.00688 6.0076 4.375 8.02083 4.375H26.9792C28.9931 4.375 30.625 6.00688 30.625 8.02083V26.9792Z" fill="#0078D4"/>
<path opacity="0.05" d="M21.875 26.9791V19.6152C21.875 18.3837 21.2779 17.6479 20.2767 17.6479C19.6824 17.6479 19.2457 17.9826 18.9795 18.6425C18.9671 18.6892 18.9496 18.8795 18.9569 19.4548L18.9584 26.9791H13.8542V13.1249H18.9584V13.8986C19.7036 13.3845 20.6172 13.1249 21.684 13.1249C24.9995 13.1249 26.9785 15.3802 26.9785 19.158L26.9792 26.9791H21.875ZM8.02087 26.9791V13.1249H10.5416C9.08108 13.1249 8.02087 12.0516 8.02087 10.5721C8.02087 9.09409 9.09858 8.02075 10.5832 8.02075C12.0502 8.02075 13.0951 9.06419 13.125 10.5575C13.125 12.0479 12.0466 13.1249 10.562 13.1249H13.125V26.9791H8.02087Z" fill="black"/>
<path opacity="0.07" d="M22.2395 26.6147V19.6154C22.2395 18.1767 21.4878 17.2835 20.2766 17.2835C19.3324 17.2835 18.8657 17.9485 18.6411 18.5063C18.5813 18.6514 18.5893 19.2275 18.5922 19.4732L18.5937 26.6147H14.2187V13.4897H18.5937V14.684C19.1734 14.0839 20.1067 13.4897 21.6839 13.4897C24.7705 13.4897 26.6138 15.6086 26.6138 19.1582L26.6145 26.6147H22.2395ZM8.38538 26.6147V13.4897H12.7604V26.6147H8.38538ZM10.5415 12.7605C9.29246 12.7605 8.38538 11.8403 8.38538 10.5723C8.38538 9.30498 9.30996 8.3855 10.5831 8.3855C11.8402 8.3855 12.7349 9.28164 12.7604 10.565C12.7604 11.8403 11.8358 12.7605 10.5619 12.7605H10.5415Z" fill="black"/>
<path d="M8.75 13.8542H12.3958V26.25H8.75V13.8542ZM10.562 12.3958H10.5416C9.45365 12.3958 8.75 11.585 8.75 10.5722C8.75 9.5375 9.47552 8.75 10.5831 8.75C11.6922 8.75 12.3754 9.5375 12.3958 10.5722C12.3958 11.5843 11.6922 12.3958 10.562 12.3958ZM26.25 26.25H22.6042V19.6153C22.6042 18.0126 21.7109 16.9189 20.2767 16.9189C19.1822 16.9189 18.5901 17.6568 18.3028 18.3699C18.1978 18.6251 18.2292 19.3309 18.2292 19.6875V26.25H14.5833V13.8542H18.2292V15.7617C18.7549 14.9479 19.5781 13.8542 21.684 13.8542C24.2929 13.8542 26.2493 15.4948 26.2493 19.1581L26.25 26.25Z" fill="white"/>
</svg>
