<svg width="217" height="77" viewBox="0 0 217 77" fill="none" xmlns="http://www.w3.org/2000/svg">
<circle cx="21.991" cy="5.41898" r="5.41898" fill="#1683B5"/>
<path d="M37.5388 63.2982C37.2886 58.7696 34.5419 45.4256 29.691 35.4931C22.691 21.1606 0 7.05737 0 7.05737C0 7.05737 21.7559 13.7077 34.1817 28.4415C48.4386 45.3467 43.3891 60.3691 41.6168 65.8742C40.1732 70.3581 36.6366 77.0001 36.6366 77.0001C36.6366 77.0001 37.8128 68.2573 37.5388 63.2982Z" fill="url(#paint0_linear_20_149)"/>
<g filter="url(#filter0_b_20_149)">
<path d="M42.916 43.2746C35.3061 17.2823 0 7.05737 0 7.05737C0 7.05737 16.4995 15.3299 17.7986 36.4368C18.5537 48.703 7.44858 62.687 7.44858 62.687C7.44858 62.687 32.1587 46.5194 40.4908 55.038C45.8226 60.489 37.4516 75.3375 37.4516 75.3375C37.4516 75.3375 47.6538 59.4571 42.916 43.2746Z" fill="url(#paint1_linear_20_149)"/>
</g>
<path d="M62.0102 23.3C63.4236 23.1933 64.5569 23.14 65.4102 23.14C67.1036 23.14 68.3636 23.4067 69.1902 23.94C70.0169 24.4733 70.4302 25.2667 70.4302 26.32C70.4302 27.2267 70.1702 27.98 69.6502 28.58C69.1436 29.18 68.4636 29.58 67.6102 29.78L67.5902 29.82C68.5636 29.9667 69.3369 30.3133 69.9102 30.86C70.4969 31.4067 70.7902 32.1867 70.7902 33.2C70.7902 34.6 70.2969 35.6933 69.3102 36.48C68.3369 37.2667 66.7702 37.66 64.6102 37.66C63.7569 37.66 62.4769 37.6067 60.7702 37.5L62.0102 23.3ZM62.3902 36.34C63.2969 36.38 64.1236 36.4067 64.8702 36.42C66.3769 36.42 67.4769 36.1467 68.1702 35.6C68.8769 35.0533 69.2302 34.2667 69.2302 33.24C69.2302 32.32 68.9102 31.6667 68.2702 31.28C67.6302 30.8933 66.7369 30.7 65.5902 30.7C64.6969 30.7 63.7969 30.7067 62.8902 30.72L62.3902 36.34ZM62.9902 29.42C63.7236 29.4333 64.5102 29.44 65.3502 29.44C66.4036 29.44 67.2569 29.1867 67.9102 28.68C68.5636 28.1733 68.8902 27.46 68.8902 26.54C68.8902 25.78 68.5969 25.2333 68.0102 24.9C67.4236 24.5533 66.5636 24.38 65.4302 24.38C64.8836 24.38 64.2169 24.4 63.4302 24.44L62.9902 29.42ZM74.6145 23.84C74.8811 23.84 75.0945 23.9267 75.2545 24.1C75.4278 24.26 75.5145 24.46 75.5145 24.7C75.5145 24.98 75.4145 25.22 75.2145 25.42C75.0145 25.6067 74.7611 25.7 74.4545 25.7C74.2011 25.7 73.9878 25.62 73.8145 25.46C73.6545 25.3 73.5745 25.0933 73.5745 24.84C73.5745 24.56 73.6745 24.3267 73.8745 24.14C74.0745 23.94 74.3211 23.84 74.6145 23.84ZM74.1345 37.5H72.6945L73.5345 27.9H74.9745L74.1345 37.5ZM79.1318 30.08L78.4718 37.5H77.0318L77.6518 30.26L77.6318 27.9L78.8918 27.84L79.1318 30.08ZM79.0118 29.54C79.5451 29.0333 80.1451 28.6 80.8118 28.24C81.4785 27.88 82.1251 27.7 82.7518 27.7C83.3785 27.7 83.8851 27.8067 84.2718 28.02C84.6585 28.2333 84.9451 28.56 85.1318 29C85.3185 29.44 85.4118 29.9933 85.4118 30.66C85.4118 31.0067 85.3985 31.3467 85.3718 31.68L84.8718 37.5H83.4118L83.8918 31.86C83.9185 31.62 83.9318 31.32 83.9318 30.96C83.9185 30.3067 83.7718 29.8133 83.4918 29.48C83.2251 29.1333 82.7585 28.96 82.0918 28.96C81.6518 28.96 81.1585 29.12 80.6118 29.44C80.0651 29.7467 79.5518 30.1267 79.0718 30.58L79.0118 29.54ZM85.1518 29.82C85.7385 29.22 86.3851 28.72 87.0918 28.32C87.7985 27.9067 88.4785 27.7 89.1318 27.7C89.7585 27.7 90.2651 27.8067 90.6518 28.02C91.0385 28.2333 91.3251 28.56 91.5118 29C91.6985 29.44 91.7918 29.9933 91.7918 30.66C91.7785 31.06 91.7651 31.4 91.7518 31.68L91.2518 37.5H89.7918L90.2718 31.86C90.2985 31.62 90.3118 31.32 90.3118 30.96C90.2985 30.3067 90.1518 29.8133 89.8718 29.48C89.6051 29.1333 89.1385 28.96 88.4718 28.96C88.0051 28.96 87.4851 29.14 86.9118 29.5C86.3518 29.8467 85.8118 30.2733 85.2918 30.78L85.1518 29.82ZM94.644 30.26L94.604 27.9L95.704 27.84L95.884 29.26C96.284 28.8733 96.7907 28.52 97.404 28.2C98.0173 27.8667 98.624 27.7 99.224 27.7C100.331 27.7 101.251 28.0467 101.984 28.74C102.717 29.4333 103.084 30.52 103.084 32C103.084 33.2533 102.817 34.3133 102.284 35.18C101.764 36.0333 101.104 36.6667 100.304 37.08C99.5173 37.4933 98.7107 37.7 97.884 37.7C97.4173 37.7 96.9773 37.6467 96.564 37.54C96.1507 37.4333 95.7907 37.32 95.484 37.2L95.024 42.5H93.564L94.644 30.26ZM95.584 35.94C95.7973 36.0467 96.1173 36.1667 96.544 36.3C96.984 36.4333 97.404 36.5 97.804 36.5C98.444 36.5 99.0507 36.3333 99.624 36C100.197 35.6533 100.664 35.1533 101.024 34.5C101.384 33.8333 101.564 33.0533 101.564 32.16C101.564 31.0667 101.311 30.26 100.804 29.74C100.311 29.2067 99.684 28.94 98.924 28.94C98.4307 28.94 97.9307 29.0933 97.424 29.4C96.9173 29.6933 96.464 30.0533 96.064 30.48L95.584 35.94ZM111.702 35.88C111.182 36.4 110.575 36.8333 109.882 37.18C109.202 37.5267 108.569 37.7 107.982 37.7C106.915 37.7 106.135 37.3867 105.642 36.76C105.162 36.12 104.982 35.1067 105.102 33.72L105.602 27.9H107.042L106.562 33.54C106.482 34.4867 106.582 35.2067 106.862 35.7C107.155 36.18 107.702 36.42 108.502 36.42C108.969 36.42 109.502 36.26 110.102 35.94C110.715 35.6067 111.235 35.2333 111.662 34.82L112.282 27.9H113.722L112.882 37.5H111.562L111.702 35.88ZM125.142 27.9L124.302 37.5H122.862L123.602 29.12H119.902L118.742 33.02C118.382 34.2067 118.028 35.12 117.682 35.76C117.348 36.3867 116.928 36.8467 116.422 37.14C115.915 37.42 115.248 37.56 114.422 37.56L114.522 36.34C114.975 36.34 115.362 36.24 115.682 36.04C116.002 35.8267 116.295 35.4667 116.562 34.96C116.828 34.4533 117.102 33.7267 117.382 32.78L118.842 27.9H125.142ZM135.408 37.5L134.308 37.56L134.008 35.86L134.568 35.52C134.434 35.84 134.161 36.1667 133.748 36.5C133.348 36.8333 132.881 37.12 132.348 37.36C131.828 37.5867 131.308 37.7 130.788 37.7C129.681 37.7 128.761 37.3533 128.028 36.66C127.294 35.9667 126.928 34.88 126.928 33.4C126.928 32.1467 127.188 31.0933 127.708 30.24C128.241 29.3733 128.901 28.7333 129.688 28.32C130.488 27.9067 131.308 27.7 132.148 27.7C132.828 27.7 133.514 27.7867 134.208 27.96C134.901 28.1333 135.481 28.34 135.948 28.58L135.368 35.14L135.408 37.5ZM134.428 29.42C134.148 29.2467 133.808 29.1133 133.408 29.02C133.008 28.9133 132.608 28.86 132.208 28.86C131.568 28.86 130.961 29.0333 130.388 29.38C129.814 29.7133 129.348 30.2133 128.988 30.88C128.628 31.5333 128.448 32.3067 128.448 33.2C128.448 34.2933 128.694 35.1067 129.188 35.64C129.694 36.16 130.328 36.42 131.088 36.42C131.568 36.42 132.061 36.2733 132.568 35.98C133.088 35.6867 133.548 35.32 133.948 34.88L134.428 29.42ZM150.354 30.2C150.034 29.8 149.64 29.4867 149.174 29.26C148.707 29.0333 148.2 28.92 147.654 28.92C146.974 28.92 146.354 29.1067 145.794 29.48C145.234 29.84 144.794 30.34 144.474 30.98C144.167 31.62 144.014 32.3267 144.014 33.1C144.014 33.7533 144.134 34.3333 144.374 34.84C144.627 35.3333 144.98 35.7267 145.434 36.02C145.887 36.3 146.414 36.44 147.014 36.44C147.56 36.44 148.087 36.3267 148.594 36.1C149.1 35.86 149.574 35.5333 150.014 35.12L150.454 36.04C149.96 36.5467 149.394 36.9467 148.754 37.24C148.114 37.5333 147.427 37.68 146.694 37.68C145.867 37.68 145.134 37.4867 144.494 37.1C143.867 36.7133 143.38 36.1867 143.034 35.52C142.687 34.84 142.514 34.0733 142.514 33.22C142.514 32.2333 142.734 31.32 143.174 30.48C143.614 29.6267 144.22 28.9533 144.994 28.46C145.78 27.9533 146.66 27.7 147.634 27.7C148.314 27.7 148.94 27.8333 149.514 28.1C150.1 28.3533 150.587 28.7133 150.974 29.18L150.354 30.2ZM152.148 31.82C152.228 30.94 152.481 30.1933 152.908 29.58C153.348 28.9667 153.874 28.5067 154.488 28.2C155.114 27.8933 155.761 27.74 156.428 27.74C157.348 27.74 158.101 27.96 158.688 28.4C159.288 28.84 159.588 29.4067 159.588 30.1C159.588 30.66 159.388 31.1467 158.988 31.56C158.588 31.9733 158.074 32.2533 157.448 32.4V32.42C158.194 32.5267 158.788 32.76 159.228 33.12C159.681 33.48 159.908 33.9733 159.908 34.6C159.908 35.2 159.728 35.7267 159.368 36.18C159.008 36.6333 158.521 36.9867 157.908 37.24C157.294 37.4933 156.608 37.62 155.848 37.62C155.034 37.62 154.321 37.4533 153.708 37.12C153.108 36.7867 152.654 36.3067 152.348 35.68C152.054 35.0533 151.941 34.3267 152.008 33.5L152.148 31.82ZM153.448 33.72C153.394 34.28 153.474 34.7733 153.688 35.2C153.901 35.6133 154.208 35.9333 154.608 36.16C155.021 36.3733 155.481 36.48 155.988 36.48C156.401 36.48 156.794 36.4067 157.168 36.26C157.554 36.1 157.861 35.88 158.088 35.6C158.328 35.3067 158.448 34.9667 158.448 34.58C158.448 34.0067 158.174 33.6 157.628 33.36C157.081 33.12 156.354 33 155.448 33H153.508L153.448 33.72ZM155.408 32.1C156.248 32.1 156.921 31.9333 157.428 31.6C157.934 31.2667 158.188 30.8467 158.188 30.34C158.188 29.9 158.001 29.5533 157.628 29.3C157.254 29.0333 156.828 28.9 156.348 28.9C155.881 28.9 155.448 29.02 155.048 29.26C154.661 29.4867 154.341 29.8067 154.088 30.22C153.834 30.62 153.681 31.0733 153.628 31.58L153.588 32.1H155.408ZM166.736 27.7C167.589 27.7 168.336 27.8933 168.976 28.28C169.629 28.6667 170.129 29.2067 170.476 29.9C170.822 30.58 170.996 31.3533 170.996 32.22C170.996 33.2067 170.769 34.12 170.316 34.96C169.862 35.8 169.242 36.4667 168.456 36.96C167.682 37.4533 166.816 37.7 165.856 37.7C165.002 37.7 164.256 37.5067 163.616 37.12C162.976 36.72 162.476 36.18 162.116 35.5C161.769 34.82 161.596 34.0467 161.596 33.18C161.596 32.1933 161.822 31.28 162.276 30.44C162.729 29.6 163.342 28.9333 164.116 28.44C164.902 27.9467 165.776 27.7 166.736 27.7ZM166.636 28.92C165.969 28.92 165.369 29.1133 164.836 29.5C164.302 29.8733 163.882 30.38 163.576 31.02C163.269 31.66 163.116 32.3533 163.116 33.1C163.116 33.74 163.229 34.3133 163.456 34.82C163.696 35.3267 164.029 35.7267 164.456 36.02C164.896 36.3 165.396 36.44 165.956 36.44C166.622 36.44 167.222 36.2533 167.756 35.88C168.302 35.4933 168.729 34.98 169.036 34.34C169.342 33.7 169.496 33.0067 169.496 32.26C169.496 31.62 169.376 31.0533 169.136 30.56C168.896 30.0533 168.556 29.6533 168.116 29.36C167.689 29.0667 167.196 28.92 166.636 28.92ZM180.453 23.48C180.893 23.32 181.353 23.0333 181.833 22.62L182.373 23.68C181.973 24.1067 181.539 24.4333 181.073 24.66C180.619 24.8733 180.066 25.06 179.413 25.22C178.879 25.3533 178.379 25.4867 177.913 25.62C177.326 25.82 176.819 26.0733 176.393 26.38C175.979 26.6867 175.613 27.1267 175.293 27.7C174.973 28.2733 174.726 29.0267 174.553 29.96H174.613C175.013 29.32 175.539 28.8467 176.193 28.54C176.859 28.22 177.573 28.06 178.333 28.06C179.093 28.06 179.766 28.2533 180.353 28.64C180.953 29.0267 181.413 29.5533 181.733 30.22C182.066 30.8867 182.233 31.6333 182.233 32.46C182.233 33.42 182.013 34.3 181.573 35.1C181.146 35.9 180.546 36.5333 179.773 37C178.999 37.4667 178.126 37.7 177.153 37.7C176.313 37.7 175.573 37.5067 174.933 37.12C174.306 36.7333 173.813 36.1667 173.453 35.42C173.093 34.66 172.913 33.7533 172.913 32.7C172.913 31.1133 173.086 29.7533 173.433 28.62C173.793 27.4867 174.306 26.5733 174.973 25.88C175.639 25.1867 176.453 24.6667 177.413 24.32C177.679 24.2133 178.159 24.08 178.853 23.92C179.479 23.7867 180.013 23.64 180.453 23.48ZM179.393 29.64C178.979 29.3467 178.506 29.2 177.973 29.2C177.293 29.2 176.673 29.3667 176.113 29.7C175.553 30.0333 175.113 30.5 174.793 31.1C174.486 31.6867 174.333 32.36 174.333 33.12C174.333 33.76 174.453 34.3333 174.693 34.84C174.933 35.3467 175.273 35.74 175.713 36.02C176.153 36.3 176.659 36.44 177.233 36.44C177.886 36.44 178.479 36.2667 179.013 35.92C179.546 35.56 179.966 35.08 180.273 34.48C180.579 33.88 180.733 33.22 180.733 32.5C180.733 31.8867 180.613 31.3267 180.373 30.82C180.146 30.3133 179.819 29.92 179.393 29.64ZM188.982 27.7C189.835 27.7 190.582 27.8933 191.222 28.28C191.875 28.6667 192.375 29.2067 192.722 29.9C193.068 30.58 193.242 31.3533 193.242 32.22C193.242 33.2067 193.015 34.12 192.562 34.96C192.108 35.8 191.488 36.4667 190.702 36.96C189.928 37.4533 189.062 37.7 188.102 37.7C187.248 37.7 186.502 37.5067 185.862 37.12C185.222 36.72 184.722 36.18 184.362 35.5C184.015 34.82 183.842 34.0467 183.842 33.18C183.842 32.1933 184.068 31.28 184.522 30.44C184.975 29.6 185.588 28.9333 186.362 28.44C187.148 27.9467 188.022 27.7 188.982 27.7ZM188.882 28.92C188.215 28.92 187.615 29.1133 187.082 29.5C186.548 29.8733 186.128 30.38 185.822 31.02C185.515 31.66 185.362 32.3533 185.362 33.1C185.362 33.74 185.475 34.3133 185.702 34.82C185.942 35.3267 186.275 35.7267 186.702 36.02C187.142 36.3 187.642 36.44 188.202 36.44C188.868 36.44 189.468 36.2533 190.002 35.88C190.548 35.4933 190.975 34.98 191.282 34.34C191.588 33.7 191.742 33.0067 191.742 32.26C191.742 31.62 191.622 31.0533 191.382 30.56C191.142 30.0533 190.802 29.6533 190.362 29.36C189.935 29.0667 189.442 28.92 188.882 28.92ZM197.559 22.62C199.772 23.26 201.439 24.3133 202.559 25.78C203.692 27.2467 204.259 29.0867 204.259 31.3C204.259 32.6467 204.025 33.8 203.559 34.76C203.092 35.72 202.459 36.4533 201.659 36.96C200.859 37.4533 199.965 37.7 198.979 37.7C198.139 37.7 197.405 37.5 196.779 37.1C196.152 36.7 195.665 36.1533 195.319 35.46C194.985 34.7533 194.819 33.9667 194.819 33.1C194.819 32.1267 195.032 31.2267 195.459 30.4C195.899 29.5733 196.479 28.92 197.199 28.44C197.932 27.96 198.719 27.72 199.559 27.72C200.292 27.72 200.919 27.8933 201.439 28.24C201.972 28.5867 202.352 29.0267 202.579 29.56H202.639C202.425 28.2 201.845 27.02 200.899 26.02C199.965 25.02 198.672 24.2867 197.019 23.82L197.559 22.62ZM199.839 28.92C199.185 28.92 198.585 29.1067 198.039 29.48C197.505 29.8533 197.079 30.3533 196.759 30.98C196.452 31.6067 196.299 32.2933 196.299 33.04C196.299 33.68 196.419 34.26 196.659 34.78C196.899 35.2867 197.232 35.6933 197.659 36C198.085 36.2933 198.585 36.44 199.159 36.44C199.825 36.44 200.425 36.26 200.959 35.9C201.505 35.5267 201.932 35.0267 202.239 34.4C202.559 33.76 202.719 33.0467 202.719 32.26C202.719 31.6333 202.599 31.0667 202.359 30.56C202.119 30.0533 201.779 29.6533 201.339 29.36C200.912 29.0667 200.412 28.92 199.839 28.92ZM212.952 35.88C212.432 36.4 211.825 36.8333 211.132 37.18C210.452 37.5267 209.819 37.7 209.232 37.7C208.165 37.7 207.385 37.3867 206.892 36.76C206.412 36.12 206.232 35.1067 206.352 33.72L206.852 27.9H208.292L207.812 33.54C207.732 34.4867 207.832 35.2067 208.112 35.7C208.405 36.18 208.952 36.42 209.752 36.42C210.219 36.42 210.752 36.26 211.352 35.94C211.965 35.6067 212.485 35.2333 212.912 34.82L213.532 27.9H214.972L214.132 37.5H212.812L212.952 35.88Z" fill="#1683B5"/>
<path d="M61.4758 48.4L61.2058 51.47C61.6991 51.4433 62.1591 51.43 62.5858 51.43C63.4858 51.43 64.1425 51.59 64.5558 51.91C64.9691 52.23 65.1758 52.69 65.1758 53.29C65.1758 53.99 64.9358 54.5467 64.4558 54.96C63.9825 55.3667 63.1891 55.57 62.0758 55.57C61.6825 55.57 61.0891 55.5467 60.2958 55.5L60.9158 48.4H61.4758ZM60.8858 55.05C61.4525 55.0767 61.8658 55.09 62.1258 55.09C63.0191 55.09 63.6558 54.9333 64.0358 54.62C64.4158 54.3067 64.6058 53.8833 64.6058 53.35C64.6058 52.9033 64.4425 52.5567 64.1158 52.31C63.7958 52.0567 63.2591 51.93 62.5058 51.93C62.0858 51.93 61.6391 51.9433 61.1658 51.97L60.8858 55.05ZM65.1958 48.4L65.1558 48.93H61.3758L60.9158 48.4H65.1958ZM70.7112 50.7L70.2912 55.5H69.7612L70.1412 51.15H68.0712L67.4612 53.24C67.2878 53.8333 67.1145 54.2933 66.9412 54.62C66.7678 54.94 66.5612 55.17 66.3212 55.31C66.0878 55.45 65.7912 55.52 65.4312 55.52L65.4712 55.07C65.6978 55.07 65.8912 55.0167 66.0512 54.91C66.2178 54.7967 66.3745 54.6033 66.5212 54.33C66.6678 54.05 66.8145 53.66 66.9612 53.16L67.6812 50.7H70.7112ZM75.7652 55.5L75.3552 55.52L75.2552 54.64L75.4552 54.52C75.3686 54.6733 75.2252 54.8333 75.0252 55C74.8252 55.16 74.5952 55.3 74.3352 55.42C74.0752 55.5333 73.8186 55.59 73.5652 55.59C73.0186 55.59 72.5652 55.4167 72.2052 55.07C71.8452 54.7233 71.6652 54.1833 71.6652 53.45C71.6652 52.8367 71.7919 52.3167 72.0452 51.89C72.2986 51.4633 72.6219 51.1433 73.0152 50.93C73.4086 50.7167 73.8186 50.61 74.2452 50.61C74.5586 50.61 74.8786 50.6533 75.2052 50.74C75.5386 50.82 75.8186 50.9233 76.0452 51.05L75.7552 54.37L75.7652 55.5ZM75.4852 51.36C75.3319 51.2667 75.1419 51.19 74.9152 51.13C74.6952 51.07 74.4786 51.04 74.2652 51.04C73.9119 51.04 73.5786 51.1333 73.2652 51.32C72.9519 51.5067 72.6986 51.7767 72.5052 52.13C72.3119 52.4833 72.2152 52.9 72.2152 53.38C72.2152 53.9667 72.3519 54.4033 72.6252 54.69C72.8986 54.97 73.2452 55.11 73.6652 55.11C73.9252 55.11 74.1952 55.03 74.4752 54.87C74.7619 54.71 75.0152 54.5067 75.2352 54.26L75.4852 51.36ZM80.2063 55.01C79.973 55.17 79.693 55.3067 79.3663 55.42C79.0463 55.5333 78.7163 55.59 78.3763 55.59C77.9297 55.59 77.563 55.4833 77.2763 55.27C76.9963 55.05 76.8563 54.7633 76.8563 54.41C76.8563 54.1033 76.933 53.85 77.0863 53.65C77.2463 53.45 77.4363 53.2967 77.6563 53.19C77.8763 53.0833 78.1697 52.9667 78.5363 52.84C78.823 52.74 79.0563 52.6467 79.2363 52.56C79.423 52.4733 79.573 52.36 79.6863 52.22C79.8063 52.08 79.8663 51.9033 79.8663 51.69C79.8663 51.49 79.783 51.3333 79.6163 51.22C79.4497 51.1067 79.2297 51.05 78.9563 51.05C78.7097 51.05 78.4563 51.0933 78.1963 51.18C77.943 51.2667 77.7163 51.3767 77.5163 51.51L77.3863 51.1C77.5997 50.96 77.8463 50.8433 78.1263 50.75C78.413 50.65 78.703 50.6 78.9963 50.6C79.4163 50.6 79.753 50.69 80.0063 50.87C80.2663 51.05 80.3963 51.3033 80.3963 51.63C80.3963 51.9367 80.3197 52.19 80.1663 52.39C80.013 52.5833 79.8263 52.7367 79.6063 52.85C79.3863 52.9567 79.0963 53.0733 78.7363 53.2C78.4497 53.3 78.213 53.3933 78.0263 53.48C77.8463 53.5667 77.6963 53.6833 77.5763 53.83C77.4563 53.97 77.3963 54.15 77.3963 54.37C77.3963 54.5967 77.4897 54.78 77.6763 54.92C77.8697 55.06 78.1263 55.13 78.4463 55.13C78.7263 55.13 79.013 55.08 79.3063 54.98C79.5997 54.8733 79.8597 54.7467 80.0863 54.6L80.2063 55.01ZM83.687 50.61C84.1003 50.61 84.4636 50.7067 84.777 50.9C85.097 51.0933 85.3403 51.36 85.507 51.7C85.6803 52.0333 85.767 52.4167 85.767 52.85C85.767 53.3433 85.6536 53.8 85.427 54.22C85.207 54.64 84.907 54.9733 84.527 55.22C84.147 55.4667 83.7236 55.59 83.257 55.59C82.837 55.59 82.4703 55.4933 82.157 55.3C81.8436 55.1067 81.6003 54.84 81.427 54.5C81.2603 54.16 81.177 53.7767 81.177 53.35C81.177 52.8567 81.287 52.4 81.507 51.98C81.727 51.56 82.027 51.2267 82.407 50.98C82.7936 50.7333 83.2203 50.61 83.687 50.61ZM83.647 51.06C83.287 51.06 82.9603 51.1633 82.667 51.37C82.3736 51.5767 82.1436 51.8533 81.977 52.2C81.8103 52.5467 81.727 52.92 81.727 53.32C81.727 53.6667 81.7903 53.9767 81.917 54.25C82.0503 54.5233 82.2336 54.7367 82.467 54.89C82.707 55.0433 82.9803 55.12 83.287 55.12C83.647 55.12 83.9736 55.02 84.267 54.82C84.567 54.6133 84.8003 54.3367 84.967 53.99C85.1403 53.6433 85.227 53.27 85.227 52.87C85.227 52.5233 85.1603 52.2133 85.027 51.94C84.8936 51.6667 84.707 51.4533 84.467 51.3C84.2336 51.14 83.9603 51.06 83.647 51.06ZM87.9466 48.07C89.0533 48.3967 89.8766 48.9267 90.4166 49.66C90.9566 50.3933 91.2266 51.3133 91.2266 52.42C91.2266 53.08 91.1133 53.65 90.8866 54.13C90.66 54.6033 90.35 54.9667 89.9566 55.22C89.57 55.4667 89.1366 55.59 88.6566 55.59C88.2433 55.59 87.8833 55.49 87.5766 55.29C87.27 55.09 87.03 54.8167 86.8566 54.47C86.69 54.1233 86.6066 53.7333 86.6066 53.3C86.6066 52.82 86.7133 52.3733 86.9266 51.96C87.1466 51.5467 87.4366 51.22 87.7966 50.98C88.1633 50.74 88.56 50.62 88.9866 50.62C89.3866 50.62 89.7266 50.72 90.0066 50.92C90.2933 51.1133 90.4966 51.36 90.6166 51.66H90.6366C90.55 50.9067 90.2666 50.26 89.7866 49.72C89.3133 49.1733 88.6333 48.77 87.7466 48.51L87.9466 48.07ZM89.0766 51.06C88.7233 51.06 88.4 51.1633 88.1066 51.37C87.8133 51.57 87.58 51.84 87.4066 52.18C87.24 52.5133 87.1566 52.88 87.1566 53.28C87.1566 53.6267 87.22 53.94 87.3466 54.22C87.48 54.5 87.6633 54.72 87.8966 54.88C88.13 55.04 88.4033 55.12 88.7166 55.12C89.0833 55.12 89.4133 55.0233 89.7066 54.83C90.0066 54.63 90.24 54.36 90.4066 54.02C90.5733 53.6733 90.6566 53.29 90.6566 52.87C90.6566 52.53 90.59 52.2233 90.4566 51.95C90.33 51.6767 90.1466 51.46 89.9066 51.3C89.6733 51.14 89.3966 51.06 89.0766 51.06ZM93.0845 48.76C93.1911 48.76 93.2778 48.7933 93.3445 48.86C93.4111 48.92 93.4445 49 93.4445 49.1C93.4445 49.2133 93.4045 49.31 93.3245 49.39C93.2445 49.4633 93.1445 49.5 93.0245 49.5C92.9245 49.5 92.8411 49.47 92.7745 49.41C92.7078 49.3433 92.6745 49.26 92.6745 49.16C92.6745 49.0467 92.7111 48.9533 92.7845 48.88C92.8645 48.8 92.9645 48.76 93.0845 48.76ZM92.7645 55.5H92.2345L92.6545 50.7H93.1845L92.7645 55.5ZM97.7059 54.65C97.4326 54.9167 97.1159 55.14 96.7559 55.32C96.4026 55.5 96.0826 55.59 95.7959 55.59C95.2493 55.59 94.8593 55.4267 94.6259 55.1C94.3926 54.7733 94.3026 54.2767 94.3559 53.61L94.6059 50.7H95.1359L94.8959 53.55C94.8559 54.0633 94.9159 54.4533 95.0759 54.72C95.2359 54.9867 95.5359 55.12 95.9759 55.12C96.2293 55.12 96.5193 55.03 96.8459 54.85C97.1793 54.6633 97.4626 54.46 97.6959 54.24L98.0059 50.7H98.5359L98.1159 55.5H97.6359L97.7059 54.65ZM96.0659 48.66C96.0659 48.8867 96.1326 49.07 96.2659 49.21C96.3993 49.3433 96.5693 49.41 96.7759 49.41C96.9959 49.41 97.1859 49.3333 97.3459 49.18C97.5126 49.0267 97.6059 48.8267 97.6259 48.58H97.9659C97.9326 48.9333 97.7993 49.22 97.5659 49.44C97.3326 49.66 97.0559 49.77 96.7359 49.77C96.4293 49.77 96.1826 49.6733 95.9959 49.48C95.8093 49.2867 95.7159 49.0267 95.7159 48.7V48.58H96.0659V48.66ZM100.567 50.7L100.387 52.8H103.277L103.457 50.7H103.987L103.567 55.5H103.037L103.227 53.25H100.337L100.147 55.5H99.6173L100.037 50.7H100.567ZM108.507 54.65C108.233 54.9167 107.917 55.14 107.557 55.32C107.203 55.5 106.883 55.59 106.597 55.59C106.05 55.59 105.66 55.4267 105.427 55.1C105.193 54.7733 105.103 54.2767 105.157 53.61L105.407 50.7H105.937L105.697 53.55C105.657 54.0633 105.717 54.4533 105.877 54.72C106.037 54.9867 106.337 55.12 106.777 55.12C107.03 55.12 107.32 55.03 107.647 54.85C107.98 54.6633 108.263 54.46 108.497 54.24L108.807 50.7H109.337L108.917 55.5H108.437L108.507 54.65ZM113.868 54.65C113.595 54.9167 113.278 55.14 112.918 55.32C112.565 55.5 112.245 55.59 111.958 55.59C111.411 55.59 111.021 55.4267 110.788 55.1C110.555 54.7733 110.465 54.2767 110.518 53.61L110.768 50.7H111.298L111.058 53.55C111.018 54.0633 111.078 54.4533 111.238 54.72C111.398 54.9867 111.698 55.12 112.138 55.12C112.391 55.12 112.681 55.03 113.008 54.85C113.341 54.6633 113.625 54.46 113.858 54.24L114.168 50.7H114.698L114.278 55.5H113.798L113.868 54.65ZM112.228 48.66C112.228 48.8867 112.295 49.07 112.428 49.21C112.561 49.3433 112.731 49.41 112.938 49.41C113.158 49.41 113.348 49.3333 113.508 49.18C113.675 49.0267 113.768 48.8267 113.788 48.58H114.128C114.095 48.9333 113.961 49.22 113.728 49.44C113.495 49.66 113.218 49.77 112.898 49.77C112.591 49.77 112.345 49.6733 112.158 49.48C111.971 49.2867 111.878 49.0267 111.878 48.7V48.58H112.228V48.66ZM121.251 50.57C121.778 50.57 122.248 50.6733 122.661 50.88C123.081 51.08 123.408 51.36 123.641 51.72C123.881 52.0733 124.001 52.4733 124.001 52.92C124.001 53.4267 123.858 53.8867 123.571 54.3C123.291 54.7067 122.908 55.03 122.421 55.27C121.935 55.5033 121.398 55.62 120.811 55.62C120.285 55.62 119.811 55.52 119.391 55.32C118.971 55.1133 118.645 54.8333 118.411 54.48C118.178 54.12 118.061 53.7167 118.061 53.27C118.061 52.7633 118.201 52.3033 118.481 51.89C118.768 51.4767 119.155 51.1533 119.641 50.92C120.128 50.6867 120.665 50.57 121.251 50.57ZM120.861 55.14C121.341 55.14 121.778 55.0433 122.171 54.85C122.571 54.6567 122.885 54.3933 123.111 54.06C123.345 53.7267 123.461 53.3567 123.461 52.95C123.461 52.5833 123.365 52.2567 123.171 51.97C122.978 51.6833 122.711 51.4567 122.371 51.29C122.031 51.1233 121.645 51.04 121.211 51.04C120.745 51.04 120.311 51.1367 119.911 51.33C119.518 51.5233 119.201 51.7867 118.961 52.12C118.728 52.4467 118.611 52.8167 118.611 53.23C118.611 53.59 118.705 53.9167 118.891 54.21C119.085 54.4967 119.351 54.7233 119.691 54.89C120.038 55.0567 120.428 55.14 120.861 55.14ZM120.871 58H120.361L121.221 48.13H121.731L120.871 58ZM127.339 50.61C127.753 50.61 128.116 50.7067 128.429 50.9C128.749 51.0933 128.993 51.36 129.159 51.7C129.333 52.0333 129.419 52.4167 129.419 52.85C129.419 53.3433 129.306 53.8 129.079 54.22C128.859 54.64 128.559 54.9733 128.179 55.22C127.799 55.4667 127.376 55.59 126.909 55.59C126.489 55.59 126.123 55.4933 125.809 55.3C125.496 55.1067 125.253 54.84 125.079 54.5C124.913 54.16 124.829 53.7767 124.829 53.35C124.829 52.8567 124.939 52.4 125.159 51.98C125.379 51.56 125.679 51.2267 126.059 50.98C126.446 50.7333 126.873 50.61 127.339 50.61ZM127.299 51.06C126.939 51.06 126.613 51.1633 126.319 51.37C126.026 51.5767 125.796 51.8533 125.629 52.2C125.463 52.5467 125.379 52.92 125.379 53.32C125.379 53.6667 125.443 53.9767 125.569 54.25C125.703 54.5233 125.886 54.7367 126.119 54.89C126.359 55.0433 126.633 55.12 126.939 55.12C127.299 55.12 127.626 55.02 127.919 54.82C128.219 54.6133 128.453 54.3367 128.619 53.99C128.793 53.6433 128.879 53.27 128.879 52.87C128.879 52.5233 128.813 52.2133 128.679 51.94C128.546 51.6667 128.359 51.4533 128.119 51.3C127.886 51.14 127.613 51.06 127.299 51.06ZM131.329 50.7L131.149 52.8H134.039L134.219 50.7H134.749L134.329 55.5H133.799L133.989 53.25H131.099L130.909 55.5H130.379L130.799 50.7H131.329ZM137.038 48.07C138.145 48.3967 138.968 48.9267 139.508 49.66C140.048 50.3933 140.318 51.3133 140.318 52.42C140.318 53.08 140.205 53.65 139.978 54.13C139.752 54.6033 139.442 54.9667 139.048 55.22C138.662 55.4667 138.228 55.59 137.748 55.59C137.335 55.59 136.975 55.49 136.668 55.29C136.362 55.09 136.122 54.8167 135.948 54.47C135.782 54.1233 135.698 53.7333 135.698 53.3C135.698 52.82 135.805 52.3733 136.018 51.96C136.238 51.5467 136.528 51.22 136.888 50.98C137.255 50.74 137.652 50.62 138.078 50.62C138.478 50.62 138.818 50.72 139.098 50.92C139.385 51.1133 139.588 51.36 139.708 51.66H139.728C139.642 50.9067 139.358 50.26 138.878 49.72C138.405 49.1733 137.725 48.77 136.838 48.51L137.038 48.07ZM138.168 51.06C137.815 51.06 137.492 51.1633 137.198 51.37C136.905 51.57 136.672 51.84 136.498 52.18C136.332 52.5133 136.248 52.88 136.248 53.28C136.248 53.6267 136.312 53.94 136.438 54.22C136.572 54.5 136.755 54.72 136.988 54.88C137.222 55.04 137.495 55.12 137.808 55.12C138.175 55.12 138.505 55.0233 138.798 54.83C139.098 54.63 139.332 54.36 139.498 54.02C139.665 53.6733 139.748 53.29 139.748 52.87C139.748 52.53 139.682 52.2233 139.548 51.95C139.422 51.6767 139.238 51.46 138.998 51.3C138.765 51.14 138.488 51.06 138.168 51.06Z" fill="#1683B5"/>
<defs>
<filter id="filter0_b_20_149" x="-12" y="-4.94263" width="68.171" height="92.28" filterUnits="userSpaceOnUse" color-interpolation-filters="sRGB">
<feFlood flood-opacity="0" result="BackgroundImageFix"/>
<feGaussianBlur in="BackgroundImageFix" stdDeviation="6"/>
<feComposite in2="SourceAlpha" operator="in" result="effect1_backgroundBlur_20_149"/>
<feBlend mode="normal" in="SourceGraphic" in2="effect1_backgroundBlur_20_149" result="shape"/>
</filter>
<linearGradient id="paint0_linear_20_149" x1="36.6412" y1="77.0001" x2="36.3201" y2="53.8146" gradientUnits="userSpaceOnUse">
<stop stop-color="#1FD5DC"/>
<stop offset="1" stop-color="#005084"/>
</linearGradient>
<linearGradient id="paint1_linear_20_149" x1="7.45543" y1="62.6103" x2="42.0636" y2="39.0658" gradientUnits="userSpaceOnUse">
<stop stop-color="#23E9E9"/>
<stop offset="1" stop-color="#157DB1"/>
</linearGradient>
</defs>
</svg>
