<svg width="169" height="49" viewBox="0 0 169 49" fill="none" xmlns="http://www.w3.org/2000/svg">
<path d="M3.9884 13.2393C3.9884 14.5385 3.9884 15.7692 3.9884 17.0342C3.9884 17.3419 3.9884 17.6154 3.9884 17.9231C3.9884 18.1624 3.95402 18.4017 3.88526 18.641C3.67896 19.3248 2.95692 19.7009 1.82229 19.6325C0.825187 19.5983 0.24068 19.2222 0.0687656 18.5043C0 18.265 0 17.9915 0 17.7521C0 12.3846 0 6.98291 0 1.61538C0 0.487179 0.412593 0.00854701 1.58161 0.00854701C6.3952 0.00854701 11.2088 -0.025641 15.988 0.042735C17.879 0.042735 19.7013 0.316239 21.4205 1.17094C23.0365 1.99145 23.9304 3.2906 24.0336 5.06838C24.068 6.09402 24.1023 7.08547 24.0336 8.11111C23.9304 10.4359 22.4863 11.7692 20.389 12.4872C18.8762 13 17.2945 13.2051 15.7129 13.2051C12.034 13.2393 8.35502 13.2051 4.67606 13.2051C4.46976 13.2393 4.26347 13.2393 3.9884 13.2393ZM3.9884 10.1624C4.09155 10.1966 4.16032 10.1966 4.22908 10.1966C8.25187 10.1966 12.2403 10.2308 16.2631 10.1624C17.157 10.1624 18.051 9.8547 18.9105 9.54701C19.7013 9.23932 20.1139 8.55556 20.1139 7.66667C20.1139 7.01709 20.1139 6.36752 20.1139 5.71795C20.1483 4.65812 19.667 3.90598 18.6699 3.59829C17.7759 3.32479 16.8476 3.08547 15.9192 3.08547C12.1027 3.01709 8.28625 3.05128 4.46976 3.05128C4.05717 3.05128 3.95402 3.18803 3.95402 3.5641C3.95402 5.17094 3.95402 6.77778 3.95402 8.38462C3.9884 8.96581 3.9884 9.5812 3.9884 10.1624Z" fill="white"/>
<path d="M130.861 18.9145C130.345 18.9145 129.864 18.9145 129.348 18.9145C126.15 18.8803 122.987 18.8803 119.79 18.812C118.517 18.7778 117.28 18.5043 116.145 17.9231C114.873 17.2735 114.013 16.2479 113.945 14.812C113.841 13 113.841 11.1538 113.945 9.34188C114.013 7.76923 115.01 6.74359 116.42 6.09402C117.658 5.54701 118.999 5.30769 120.34 5.30769C123.297 5.2735 126.288 5.30769 129.279 5.37607C130.483 5.41026 131.652 5.71795 132.718 6.29915C133.921 6.94872 134.609 7.94017 134.746 9.30769C134.781 9.64957 134.815 9.95726 134.815 10.2991C134.815 13.2735 134.746 16.2137 134.849 19.188C134.918 21.8889 133.887 23.4957 130.723 24.0427C129.245 24.2821 127.698 24.2479 126.219 24.3162C125.291 24.3504 124.363 24.3504 123.434 24.2821C122.437 24.2479 121.921 23.735 121.921 22.8803C121.921 22.0256 122.471 21.4786 123.469 21.4444C124.844 21.4103 126.219 21.4444 127.595 21.4103C128.179 21.4103 128.764 21.3761 129.314 21.3077C130.655 21.1026 131.033 20.5556 130.861 18.9145ZM130.895 16.0427C130.895 13.9231 130.895 11.8718 130.895 9.78633C130.895 9.30769 130.655 8.89744 130.242 8.7265C129.657 8.52137 129.073 8.28205 128.488 8.28205C125.738 8.24786 122.987 8.24786 120.271 8.28205C119.79 8.28205 119.274 8.4188 118.793 8.58974C118.139 8.79487 117.795 9.23932 117.83 9.95726C117.864 11.4274 117.864 12.9316 117.83 14.4017C117.83 15.0513 118.139 15.4957 118.724 15.6667C119.308 15.8376 119.962 16.0085 120.58 16.0085C123.95 16.0427 127.319 16.0427 130.723 16.0427C130.723 16.0769 130.792 16.0769 130.895 16.0427Z" fill="white"/>
<path d="M46.4855 13.5812C46.4855 14.1966 46.4511 14.7436 46.4855 15.3248C46.5199 15.8718 46.8981 16.2479 47.4139 16.3504C48.239 16.5214 49.0986 16.6581 49.9582 16.6923C51.0928 16.7607 52.2618 16.6923 53.3965 16.6923C53.6715 16.6923 53.9466 16.6923 54.256 16.7265C55.0812 16.8291 55.5282 17.2735 55.5626 18.0598C55.597 18.8462 55.2188 19.3248 54.428 19.4957C54.3592 19.4957 54.2904 19.5299 54.2217 19.5299C51.6773 19.4957 49.0986 19.7692 46.5887 19.2222C46.0729 19.1197 45.5228 18.9487 45.0415 18.7094C43.4942 18.0256 42.7378 16.8291 42.7034 15.1538C42.7034 13.2393 42.7034 11.3248 42.7034 9.44444C42.7034 7.59829 43.563 6.33333 45.3165 5.82051C46.3136 5.51282 47.3795 5.30769 48.411 5.30769C51.6429 5.23932 54.8749 5.2735 58.1413 5.2735C59.3103 5.2735 60.4449 5.44444 61.5452 5.88889C62.9205 6.47009 63.6425 7.49573 63.6425 8.96581C63.6425 10.0256 63.6425 11.0855 63.6425 12.1795C63.6425 13 63.2987 13.4103 62.4735 13.5128C62.1985 13.547 61.9578 13.547 61.6827 13.547C56.766 13.547 51.8492 13.547 46.9325 13.547C46.795 13.5812 46.6574 13.5812 46.4855 13.5812ZM46.4855 11.0855C46.6574 11.0855 46.795 11.1197 46.8981 11.1197C51.0241 11.1197 55.15 11.1197 59.2759 11.1197C59.3791 11.1197 59.4822 11.1538 59.551 11.1197C59.6541 11.0513 59.8261 10.9487 59.8604 10.8462C60.2043 9.13675 59.6885 8.4188 57.935 8.17949C57.7631 8.1453 57.6256 8.1453 57.4536 8.1453C54.6343 8.1453 51.7805 8.11111 48.9611 8.1453C48.411 8.1453 47.8608 8.28205 47.3107 8.45299C46.8294 8.58974 46.5199 8.96581 46.5199 9.51282C46.4511 10.0256 46.4855 10.5385 46.4855 11.0855Z" fill="white"/>
<path d="M158.677 5.17094C160.568 5.2735 162.459 5.30769 164.315 5.51282C165.244 5.61539 166.172 5.95726 166.997 6.40171C168.235 7.01709 168.923 8.07692 168.957 9.47863C169.026 11.3248 168.991 13.2051 168.991 15.0513C168.957 17.0684 167.857 18.3333 166 18.9145C164.9 19.2564 163.731 19.4957 162.596 19.5299C159.674 19.5983 156.717 19.5299 153.794 19.4615C152.66 19.4274 151.559 19.1197 150.562 18.5726C149.29 17.9231 148.465 16.8974 148.43 15.4615C148.362 13.4103 148.327 11.359 148.43 9.30769C148.534 7.49573 149.737 6.36752 151.422 5.88889C152.66 5.54701 153.932 5.37607 155.204 5.2735C156.373 5.17094 157.542 5.23932 158.677 5.23932C158.677 5.23932 158.677 5.20513 158.677 5.17094ZM158.677 16.6239C158.677 16.5897 158.677 16.5556 158.677 16.5214C159.983 16.5214 161.324 16.5556 162.631 16.5214C163.146 16.5214 163.628 16.3846 164.109 16.2137C164.865 15.9402 165.106 15.5299 165.106 14.7436C165.106 13.3077 165.106 11.8718 165.106 10.4359C165.106 9.17094 164.728 8.7265 163.49 8.45299C163.215 8.38461 162.906 8.35043 162.596 8.35043C159.949 8.35043 157.301 8.31624 154.688 8.35043C154.104 8.35043 153.519 8.55556 152.969 8.76068C152.488 8.93162 152.213 9.34188 152.213 9.92308C152.213 11.5983 152.213 13.2735 152.213 14.9487C152.213 15.4615 152.453 15.8376 152.9 16.0427C153.21 16.2137 153.588 16.3846 153.932 16.3846C155.513 16.4872 157.095 16.5556 158.677 16.6239Z" fill="white"/>
<path d="M74.9201 16.6239C76.9143 16.6239 78.9429 16.6239 80.9371 16.6239C81.0058 16.6239 81.0746 16.6239 81.1434 16.6239C82.6562 16.5214 83.0688 16.0427 82.7938 14.5385C82.7594 14.2991 82.4499 14.0256 82.2092 13.9915C81.5216 13.8547 80.8339 13.7179 80.1119 13.7179C77.8082 13.6838 75.539 13.7521 73.2353 13.6838C72.0319 13.6496 70.7942 13.4786 69.6595 13.1368C67.906 12.6581 67.2871 11.7009 67.2871 9.88889C67.2871 9.47863 67.2871 9.06838 67.3215 8.69231C67.4934 7.35897 68.2842 6.4359 69.522 6.02564C70.5879 5.68376 71.6881 5.41026 72.7884 5.34188C74.5763 5.23932 76.3298 5.2735 78.1177 5.30769C79.2523 5.34188 79.8025 6.12821 79.5274 7.15385C79.3555 7.76923 78.8054 8.11111 77.9458 8.1453C76.5361 8.17949 75.1264 8.1453 73.7167 8.17949C73.1666 8.17949 72.5821 8.24786 72.0319 8.38462C71.138 8.58974 70.6566 9.68376 71.138 10.5043C71.2755 10.7436 71.585 10.9145 71.86 10.9829C72.4789 11.1197 73.0978 11.188 73.7511 11.2222C76.0547 11.2564 78.3584 11.188 80.662 11.2564C81.8654 11.2906 83.1032 11.4615 84.2378 11.8034C85.9226 12.2821 86.5071 13.1709 86.5071 14.9487C86.5071 15.2564 86.5071 15.5641 86.5071 15.906C86.5415 17.3419 85.8194 18.2991 84.5817 18.8803C83.3095 19.4615 81.8998 19.6325 80.5245 19.6667C76.6392 19.7009 72.754 19.7009 68.8343 19.6667C67.7341 19.6667 67.1496 19.188 67.1496 18.2991C67.1152 17.4103 67.5622 16.9316 68.4561 16.8291C68.7312 16.7949 69.0063 16.7949 69.3157 16.7949C71.1724 16.7949 73.0634 16.7949 74.9201 16.7949C74.9201 16.6581 74.9201 16.6581 74.9201 16.6239Z" fill="white"/>
<path d="M95.1028 8.24786C95.1028 9.54701 95.1028 10.7094 95.1028 11.906C95.1028 13.9231 95.1028 15.9744 95.1028 17.9915C95.1028 18.9487 94.6902 19.4615 93.7275 19.5983C93.2461 19.6667 92.7304 19.6325 92.2834 19.4957C91.6989 19.359 91.3207 18.9487 91.2863 18.2991C91.2863 18.0598 91.2519 17.8547 91.2519 17.6154C91.2519 14.7436 91.2519 11.8376 91.2519 8.96581C91.2519 8.76068 91.2519 8.55556 91.2519 8.28205C90.8393 8.24786 74.6106 8.1453 74.2324 8.11111C73.3385 8.04274 72.8571 7.59829 72.8227 6.81197C72.7884 5.92308 73.201 5.41026 74.1293 5.30769C74.5075 5.2735 90.7706 5.41026 91.2519 5.41026C91.2519 4.65812 91.2519 4.00855 91.2519 3.32479C91.2519 2.64103 91.2863 1.95726 92.0427 1.61538C92.9023 1.23932 93.8306 1.20513 94.5871 1.78632C94.8965 1.99145 95.0684 2.53846 95.1028 2.91453C95.1716 3.70086 95.1372 4.48718 95.1372 5.34188C95.3435 5.34188 95.5154 5.34188 95.7217 5.34188C97.0626 5.34188 98.4379 5.34188 99.7789 5.34188C100.845 5.37607 101.36 5.88889 101.36 6.77778C101.36 7.63248 100.879 8.1453 99.9851 8.17949C98.6098 8.21368 97.2001 8.21368 95.8248 8.21368C95.5842 8.24786 95.3435 8.24786 95.1028 8.24786Z" fill="white"/>
<path d="M27.9876 13.7863C27.9876 12.6581 28.022 11.4957 27.9876 10.3675C27.8501 7.32479 29.638 6.23077 31.5634 5.71795C33.592 5.13675 35.7237 5.20513 37.8211 5.30769C38.7838 5.34188 39.2308 5.88889 39.2308 6.81197C39.2308 7.66667 38.7494 8.17949 37.7523 8.24786C36.6521 8.31624 35.5862 8.28205 34.4859 8.35043C33.9358 8.38462 33.3857 8.48718 32.9043 8.65812C32.1135 8.89744 31.8728 9.30769 31.8728 10.1624C31.8728 12.7265 31.8728 15.3248 31.8728 17.8889C31.8728 18.6068 31.7697 19.2564 31.0133 19.5299C30.1193 19.8376 29.2254 19.906 28.4689 19.2222C28.1939 18.9829 28.0564 18.4701 28.0564 18.094C27.9532 16.6239 27.9876 15.2222 27.9876 13.7863Z" fill="white"/>
<path d="M143.583 12.3846C143.583 14.2308 143.583 16.0769 143.583 17.9573C143.583 19.0171 143.136 19.5299 142.104 19.6325C141.691 19.6667 141.244 19.6325 140.866 19.5641C140.144 19.4274 139.835 19.0171 139.766 18.2991C139.732 18.094 139.732 17.8889 139.732 17.6838C139.732 14.1624 139.732 10.6068 139.732 7.08547C139.732 6.40171 139.732 5.64957 140.488 5.34188C141.348 4.96581 142.207 4.96581 143.032 5.44444C143.514 5.71795 143.617 6.19658 143.617 6.7094C143.583 8.58974 143.583 10.4701 143.583 12.3846Z" fill="white"/>
<path d="M109.131 12.3504C109.131 14.1966 109.131 16.0427 109.131 17.9231C109.131 19.0513 108.615 19.5983 107.481 19.6667C107.102 19.7009 106.69 19.6667 106.346 19.5641C105.761 19.4273 105.383 19.0171 105.314 18.4017C105.28 18.1624 105.28 17.9573 105.28 17.7179C105.28 14.1624 105.28 10.6068 105.28 7.08547C105.28 6.40171 105.28 5.68376 106.002 5.37607C106.862 4.96581 107.756 5 108.581 5.47863C109.062 5.75214 109.165 6.23077 109.165 6.74359C109.131 8.58974 109.131 10.4701 109.131 12.3504Z" fill="white"/>
<path d="M141.588 3.42735C141.348 3.39316 141.038 3.39316 140.763 3.2906C139.972 3.08547 139.56 2.53846 139.594 1.71795C139.628 0.897436 140.007 0.384615 140.832 0.247863C141.348 0.179487 141.898 0.145299 142.379 0.247863C143.307 0.384615 143.72 0.965812 143.686 1.92308C143.651 2.74359 143.136 3.2906 142.276 3.42735C142.07 3.39316 141.863 3.39316 141.588 3.42735Z" fill="white"/>
<path d="M107.137 3.42735C106.896 3.39316 106.587 3.39316 106.312 3.2906C105.521 3.08547 105.143 2.50427 105.177 1.68376C105.211 0.863248 105.59 0.350427 106.415 0.213675C106.93 0.145299 107.481 0.111111 107.962 0.213675C108.89 0.350427 109.303 0.931624 109.268 1.88889C109.234 2.7094 108.718 3.25641 107.859 3.39316C107.618 3.39316 107.412 3.42735 107.137 3.42735Z" fill="white"/>
<path d="M50.1301 38.1624V34.7094C50.1301 34.641 50.1301 34.5727 50.1301 34.5043C50.027 33.0342 49.3393 32.1795 47.8608 32.0769C46.3136 31.9402 44.732 31.9402 43.1504 32.0769C41.6719 32.1795 40.9155 33.0342 40.8811 34.4701C40.8124 36.9316 40.8124 39.359 40.8811 41.8205C40.9155 43.3248 41.7751 44.1453 43.2879 44.2479C44.732 44.3162 46.2105 44.3162 47.6545 44.2479C49.2705 44.1453 50.0613 43.2564 50.1301 41.6496C50.1645 40.453 50.1301 39.3248 50.1301 38.1624ZM50.1301 38.1624V34.7094C50.1301 34.641 50.1301 34.5727 50.1301 34.5043C50.027 33.0342 49.3393 32.1795 47.8608 32.0769C46.3136 31.9402 44.732 31.9402 43.1504 32.0769C41.6719 32.1795 40.9155 33.0342 40.8811 34.4701C40.8124 36.9316 40.8124 39.359 40.8811 41.8205C40.9155 43.3248 41.7751 44.1453 43.2879 44.2479C44.732 44.3162 46.2105 44.3162 47.6545 44.2479C49.2705 44.1453 50.0613 43.2564 50.1301 41.6496C50.1645 40.453 50.1301 39.3248 50.1301 38.1624ZM50.1301 38.1624V34.7094C50.1301 34.641 50.1301 34.5727 50.1301 34.5043C50.027 33.0342 49.3393 32.1795 47.8608 32.0769C46.3136 31.9402 44.732 31.9402 43.1504 32.0769C41.6719 32.1795 40.9155 33.0342 40.8811 34.4701C40.8124 36.9316 40.8124 39.359 40.8811 41.8205C40.9155 43.3248 41.7751 44.1453 43.2879 44.2479C44.732 44.3162 46.2105 44.3162 47.6545 44.2479C49.2705 44.1453 50.0613 43.2564 50.1301 41.6496C50.1645 40.453 50.1301 39.3248 50.1301 38.1624ZM50.1301 38.1624V34.7094C50.1301 34.641 50.1301 34.5727 50.1301 34.5043C50.027 33.0342 49.3393 32.1795 47.8608 32.0769C46.3136 31.9402 44.732 31.9402 43.1504 32.0769C41.6719 32.1795 40.9155 33.0342 40.8811 34.4701C40.8124 36.9316 40.8124 39.359 40.8811 41.8205C40.9155 43.3248 41.7751 44.1453 43.2879 44.2479C44.732 44.3162 46.2105 44.3162 47.6545 44.2479C49.2705 44.1453 50.0613 43.2564 50.1301 41.6496C50.1645 40.453 50.1301 39.3248 50.1301 38.1624ZM50.1301 38.1624V34.7094C50.1301 34.641 50.1301 34.5727 50.1301 34.5043C50.027 33.0342 49.3393 32.1795 47.8608 32.0769C46.3136 31.9402 44.732 31.9402 43.1504 32.0769C41.6719 32.1795 40.9155 33.0342 40.8811 34.4701C40.8124 36.9316 40.8124 39.359 40.8811 41.8205C40.9155 43.3248 41.7751 44.1453 43.2879 44.2479C44.732 44.3162 46.2105 44.3162 47.6545 44.2479C49.2705 44.1453 50.0613 43.2564 50.1301 41.6496C50.1645 40.453 50.1301 39.3248 50.1301 38.1624ZM50.1301 38.1624V34.7094C50.1301 34.641 50.1301 34.5727 50.1301 34.5043C50.027 33.0342 49.3393 32.1795 47.8608 32.0769C46.3136 31.9402 44.732 31.9402 43.1504 32.0769C41.6719 32.1795 40.9155 33.0342 40.8811 34.4701C40.8124 36.9316 40.8124 39.359 40.8811 41.8205C40.9155 43.3248 41.7751 44.1453 43.2879 44.2479C44.732 44.3162 46.2105 44.3162 47.6545 44.2479C49.2705 44.1453 50.0613 43.2564 50.1301 41.6496C50.1645 40.453 50.1301 39.3248 50.1301 38.1624ZM50.1301 38.1624V34.7094C50.1301 34.641 50.1301 34.5727 50.1301 34.5043C50.027 33.0342 49.3393 32.1795 47.8608 32.0769C46.3136 31.9402 44.732 31.9402 43.1504 32.0769C41.6719 32.1795 40.9155 33.0342 40.8811 34.4701C40.8124 36.9316 40.8124 39.359 40.8811 41.8205C40.9155 43.3248 41.7751 44.1453 43.2879 44.2479C44.732 44.3162 46.2105 44.3162 47.6545 44.2479C49.2705 44.1453 50.0613 43.2564 50.1301 41.6496C50.1645 40.453 50.1301 39.3248 50.1301 38.1624ZM112.5 38.1624C112.5 37 112.535 35.8718 112.5 34.7094C112.432 33.0342 111.641 32.1111 109.991 32.0085C108.546 31.906 107.068 31.906 105.624 32.0085C104.042 32.1453 103.252 32.9658 103.217 34.5385C103.148 36.9316 103.148 39.2906 103.217 41.6838C103.252 43.2906 104.145 44.1453 105.761 44.2137C107.102 44.2821 108.443 44.2821 109.784 44.2137C111.607 44.1453 112.466 43.2222 112.5 41.3761C112.535 40.3162 112.5 39.2564 112.5 38.1624ZM112.5 38.1624C112.5 37 112.535 35.8718 112.5 34.7094C112.432 33.0342 111.641 32.1111 109.991 32.0085C108.546 31.906 107.068 31.906 105.624 32.0085C104.042 32.1453 103.252 32.9658 103.217 34.5385C103.148 36.9316 103.148 39.2906 103.217 41.6838C103.252 43.2906 104.145 44.1453 105.761 44.2137C107.102 44.2821 108.443 44.2821 109.784 44.2137C111.607 44.1453 112.466 43.2222 112.5 41.3761C112.535 40.3162 112.5 39.2564 112.5 38.1624ZM50.1301 38.1624V34.7094C50.1301 34.641 50.1301 34.5727 50.1301 34.5043C50.027 33.0342 49.3393 32.1795 47.8608 32.0769C46.3136 31.9402 44.732 31.9402 43.1504 32.0769C41.6719 32.1795 40.9155 33.0342 40.8811 34.4701C40.8124 36.9316 40.8124 39.359 40.8811 41.8205C40.9155 43.3248 41.7751 44.1453 43.2879 44.2479C44.732 44.3162 46.2105 44.3162 47.6545 44.2479C49.2705 44.1453 50.0613 43.2564 50.1301 41.6496C50.1645 40.453 50.1301 39.3248 50.1301 38.1624ZM165.656 26.4017H3.30075L0 24.3504C0 31.6667 0 30.9829 0 36.6581V38.7436C0 44.4188 4.60729 49 10.3148 49H158.677C164.384 49 168.991 44.4188 168.991 38.7436V24.6923L165.656 26.4017ZM32.1135 45.3419C31.254 45.3419 30.3944 45.3419 29.5348 45.3419C28.6409 45.3419 27.7469 45.4103 26.853 45.3077C26.2684 45.2393 25.4433 45.7521 25.1682 44.7607C25.7527 44.5897 26.3372 44.3162 26.9217 44.2821C28.5377 44.2137 30.1537 44.2479 31.7353 44.2479C32.2167 44.2479 32.698 44.2479 33.1794 44.1795C34.6235 43.9744 35.208 43.3248 35.2424 41.8889C35.3111 38.9487 34.761 38.4017 31.7697 38.3675C30.3256 38.3333 28.8472 38.3333 27.4031 38.1282C25.8902 37.8889 25.237 36.9316 25.1338 35.3932C24.9963 32.5214 25.3057 30.9829 29.5004 30.9145C29.9818 30.9145 30.4975 30.8462 30.9445 30.9487C31.254 31.0171 31.4946 31.2906 31.8041 31.4615C31.529 31.6325 31.2883 31.9402 30.9789 31.9744C30.1537 32.0769 29.3285 32.0085 28.5033 32.1111C27.0249 32.3162 26.5779 32.8633 26.5435 34.2991C26.5091 36.8291 26.9561 37.2735 29.5004 37.3077C30.9101 37.3419 32.3542 37.3419 33.7639 37.5128C35.8269 37.7521 36.5489 38.7778 36.6521 40.7949C36.8583 44.1453 35.7237 45.2735 32.1135 45.3419ZM51.5054 41.8205C51.4367 43.8034 50.2333 45.1367 48.2391 45.2735C46.4511 45.3761 44.6632 45.3761 42.8753 45.2735C40.778 45.1709 39.5058 43.8718 39.4027 41.7863C39.2995 39.3932 39.3339 36.9658 39.4027 34.5385C39.4714 32.3846 40.7436 31.0855 42.9097 30.9487C44.6289 30.8462 46.348 30.8462 48.0671 30.9487C50.2676 31.0855 51.4367 32.3846 51.5054 34.5727C51.5398 35.7692 51.5054 36.9316 51.5054 38.1282C51.5054 39.359 51.5742 40.5897 51.5054 41.8205ZM64.9147 45.3077C62.9205 45.3761 60.9607 45.3419 58.9665 45.3077C56.0439 45.2735 54.703 43.9402 54.6686 41.0684C54.6343 37.9915 54.6343 34.9145 54.703 31.8034C54.703 31.4615 55.0812 30.8462 55.3563 30.812C56.1471 30.6752 56.0783 31.3248 56.0783 31.8718C56.0783 33.4444 56.0783 34.9829 56.0783 36.5556C56.0783 38.1282 56.0439 39.6667 56.0783 41.2393C56.1127 43.3248 57.041 44.2479 59.104 44.2821C61.0294 44.3162 62.9893 44.2821 64.9491 44.3162C65.3617 44.3162 65.7743 44.6581 66.2213 44.8632C65.7743 45 65.3617 45.3077 64.9147 45.3077ZM80.7652 41.7863C80.662 44.0427 79.3211 45.2051 77.0518 45.2735C75.3671 45.3419 73.6823 45.3419 71.9976 45.2735C69.9002 45.1709 68.5937 43.9744 68.5249 41.9231C68.3874 38.4701 68.4561 35.0171 68.4905 31.5641C68.4905 31.2906 68.9375 31.0513 69.1782 30.7778C69.4188 31.0513 69.8314 31.3248 69.8314 31.5983C69.9002 33.3077 69.8658 35.0171 69.8658 36.7265C69.8658 38.2991 69.8314 39.8376 69.8658 41.4103C69.9002 43.2222 70.7942 44.1795 72.6164 44.2479C73.923 44.3162 75.2295 44.3162 76.5361 44.2479C78.4271 44.1795 79.3555 43.2564 79.3555 41.3761C79.3899 38.4017 79.3555 35.4273 79.3555 32.453C79.3555 32.1453 79.2867 31.8034 79.3899 31.5641C79.5274 31.2564 79.8368 31.0171 80.0775 30.7436C80.3182 31.0171 80.7652 31.2564 80.7996 31.5299C80.8339 34.9487 80.9027 38.3675 80.7652 41.7863ZM93.8306 31.906C92.8679 31.9744 91.8708 31.9402 90.9081 31.9402C90.5299 31.9402 90.186 31.9744 89.6703 32.0085V41.1709C89.6703 42.1966 89.6703 43.2564 89.6703 44.2821C89.6703 44.7949 89.7735 45.4103 88.9827 45.4103C88.1918 45.4103 88.295 44.7949 88.295 44.2821V31.9744H85.0286C84.6504 31.9744 84.2722 32.0085 83.9284 31.9402C83.6877 31.8718 83.5502 31.6325 83.3439 31.4274C83.5502 31.2564 83.7221 31.0171 83.9628 30.9145C84.2034 30.812 84.4785 30.8803 84.7536 30.8803C87.573 30.8803 90.4267 30.8803 93.2805 30.8803C93.4524 30.8803 93.6931 30.812 93.8306 30.8803C94.1401 31.0171 94.4151 31.2222 94.6902 31.3932C94.3464 31.5641 94.1057 31.906 93.8306 31.906ZM97.8878 45.4103C97.1658 45.4103 97.2001 44.8974 97.2001 44.3846C97.2001 40.1795 97.2001 35.9744 97.2001 31.7692C97.2001 31.2906 97.1314 30.7436 97.8878 30.7436C98.6098 30.7436 98.5755 31.2564 98.5755 31.735C98.5755 33.8547 98.5755 35.9744 98.5755 38.094C98.5755 40.1795 98.5755 42.265 98.5755 44.3504C98.6098 44.8974 98.5755 45.4103 97.8878 45.4103ZM113.876 41.7521C113.807 43.735 112.604 45.1026 110.644 45.2393C108.753 45.3761 106.827 45.3761 104.936 45.2393C103.08 45.1026 101.842 43.8034 101.773 41.9231C101.704 39.3932 101.704 36.8633 101.773 34.3333C101.842 32.453 103.011 31.1197 104.868 30.9829C106.793 30.8462 108.753 30.812 110.678 30.9829C112.638 31.1197 113.773 32.5214 113.841 34.5043C113.876 35.735 113.841 36.9658 113.841 38.1966C113.876 39.3932 113.91 40.5897 113.876 41.7521ZM129.486 44.1795C129.486 44.5897 129.142 45 128.97 45.3761C128.557 45.1709 128.076 45.0342 127.801 44.6923C124.981 41.2393 122.162 37.7521 119.377 34.265C119.136 33.9915 118.896 33.718 118.655 33.4444C118.586 33.4444 118.483 33.4786 118.414 33.5128V34.6752C118.414 37.8889 118.414 41.0684 118.414 44.2821C118.414 44.7949 118.517 45.4103 117.727 45.4103C116.936 45.4103 117.005 44.7949 117.005 44.2821C117.005 40.1453 117.005 36.0427 117.039 31.906C117.039 31.5299 117.314 31.1538 117.486 30.812C117.899 31.0171 118.414 31.0855 118.689 31.4274C121.474 34.8462 124.259 38.3333 127.01 41.7863C127.251 42.094 127.526 42.4017 127.973 42.9487C128.007 42.3333 128.042 41.9573 128.042 41.5812C128.042 38.4359 128.042 35.2564 128.042 32.1111C128.042 31.5641 127.766 30.7778 128.764 30.812C129.623 30.812 129.451 31.5299 129.451 32.0769C129.52 36.0769 129.52 40.1453 129.486 44.1795ZM143.892 41.7521C143.892 43.9402 142.929 45.0684 140.694 45.2393C139.422 45.3419 138.15 45.2393 136.878 45.2393V45.3077C135.674 45.3077 134.471 45.3419 133.302 45.2735C132.993 45.2735 132.683 44.9316 132.374 44.7607C132.718 44.5897 133.027 44.282 133.336 44.2479C135.193 44.2137 137.084 44.2479 138.941 44.2137C139.491 44.2137 140.075 44.2137 140.626 44.1111C141.898 43.8718 142.414 43.2564 142.448 41.9915C142.517 38.812 142.07 38.3675 138.803 38.3333C137.428 38.3333 136.018 38.2991 134.677 38.094C133.199 37.8547 132.511 36.9658 132.408 35.4615C132.408 35.2906 132.408 35.0855 132.408 34.9145C132.374 32.0085 133.268 31.0171 136.19 30.8803C136.878 30.8462 137.531 30.812 138.219 30.8803C138.528 30.9145 138.769 31.188 139.044 31.3932C138.769 31.5641 138.528 31.8718 138.219 31.906C137.325 32.0085 136.431 31.9402 135.537 32.0769C134.265 32.2479 133.818 32.8633 133.783 34.1282C133.783 34.3675 133.783 34.5727 133.783 34.812C133.783 36.6239 134.334 37.2051 136.19 37.2735C137.737 37.3419 139.25 37.2735 140.763 37.4786C143.101 37.7521 143.858 38.7094 143.858 41C143.892 41.2393 143.892 41.4786 143.892 41.7521ZM112.5 34.7094C112.432 33.0342 111.641 32.1111 109.991 32.0085C108.546 31.906 107.068 31.906 105.624 32.0085C104.042 32.1453 103.252 32.9658 103.217 34.5385C103.148 36.9316 103.148 39.2906 103.217 41.6838C103.252 43.2906 104.145 44.1453 105.761 44.2137C107.102 44.2821 108.443 44.2821 109.784 44.2137C111.607 44.1453 112.466 43.2222 112.5 41.3761C112.535 40.2821 112.5 39.2222 112.5 38.1282C112.5 37 112.535 35.8718 112.5 34.7094ZM50.1301 34.7094C50.1301 34.641 50.1301 34.5727 50.1301 34.5043C50.027 33.0342 49.3393 32.1795 47.8608 32.0769C46.3136 31.9402 44.732 31.9402 43.1504 32.0769C41.6719 32.1795 40.9155 33.0342 40.8811 34.4701C40.8124 36.9316 40.8124 39.359 40.8811 41.8205C40.9155 43.3248 41.7751 44.1453 43.2879 44.2479C44.732 44.3162 46.2105 44.3162 47.6545 44.2479C49.2705 44.1453 50.0613 43.2564 50.1301 41.6496C50.1645 40.4872 50.1301 39.359 50.1301 38.1966V34.7094ZM50.1301 38.1624V34.7094C50.1301 34.641 50.1301 34.5727 50.1301 34.5043C50.027 33.0342 49.3393 32.1795 47.8608 32.0769C46.3136 31.9402 44.732 31.9402 43.1504 32.0769C41.6719 32.1795 40.9155 33.0342 40.8811 34.4701C40.8124 36.9316 40.8124 39.359 40.8811 41.8205C40.9155 43.3248 41.7751 44.1453 43.2879 44.2479C44.732 44.3162 46.2105 44.3162 47.6545 44.2479C49.2705 44.1453 50.0613 43.2564 50.1301 41.6496C50.1645 40.453 50.1301 39.3248 50.1301 38.1624ZM112.5 38.1624C112.5 37 112.535 35.8718 112.5 34.7094C112.432 33.0342 111.641 32.1111 109.991 32.0085C108.546 31.906 107.068 31.906 105.624 32.0085C104.042 32.1453 103.252 32.9658 103.217 34.5385C103.148 36.9316 103.148 39.2906 103.217 41.6838C103.252 43.2906 104.145 44.1453 105.761 44.2137C107.102 44.2821 108.443 44.2821 109.784 44.2137C111.607 44.1453 112.466 43.2222 112.5 41.3761C112.535 40.3162 112.5 39.2564 112.5 38.1624ZM112.5 38.1624C112.5 37 112.535 35.8718 112.5 34.7094C112.432 33.0342 111.641 32.1111 109.991 32.0085C108.546 31.906 107.068 31.906 105.624 32.0085C104.042 32.1453 103.252 32.9658 103.217 34.5385C103.148 36.9316 103.148 39.2906 103.217 41.6838C103.252 43.2906 104.145 44.1453 105.761 44.2137C107.102 44.2821 108.443 44.2821 109.784 44.2137C111.607 44.1453 112.466 43.2222 112.5 41.3761C112.535 40.3162 112.5 39.2564 112.5 38.1624ZM50.1301 38.1624V34.7094C50.1301 34.641 50.1301 34.5727 50.1301 34.5043C50.027 33.0342 49.3393 32.1795 47.8608 32.0769C46.3136 31.9402 44.732 31.9402 43.1504 32.0769C41.6719 32.1795 40.9155 33.0342 40.8811 34.4701C40.8124 36.9316 40.8124 39.359 40.8811 41.8205C40.9155 43.3248 41.7751 44.1453 43.2879 44.2479C44.732 44.3162 46.2105 44.3162 47.6545 44.2479C49.2705 44.1453 50.0613 43.2564 50.1301 41.6496C50.1645 40.453 50.1301 39.3248 50.1301 38.1624ZM50.1301 38.1624V34.7094C50.1301 34.641 50.1301 34.5727 50.1301 34.5043C50.027 33.0342 49.3393 32.1795 47.8608 32.0769C46.3136 31.9402 44.732 31.9402 43.1504 32.0769C41.6719 32.1795 40.9155 33.0342 40.8811 34.4701C40.8124 36.9316 40.8124 39.359 40.8811 41.8205C40.9155 43.3248 41.7751 44.1453 43.2879 44.2479C44.732 44.3162 46.2105 44.3162 47.6545 44.2479C49.2705 44.1453 50.0613 43.2564 50.1301 41.6496C50.1645 40.453 50.1301 39.3248 50.1301 38.1624ZM50.1301 38.1624V34.7094C50.1301 34.641 50.1301 34.5727 50.1301 34.5043C50.027 33.0342 49.3393 32.1795 47.8608 32.0769C46.3136 31.9402 44.732 31.9402 43.1504 32.0769C41.6719 32.1795 40.9155 33.0342 40.8811 34.4701C40.8124 36.9316 40.8124 39.359 40.8811 41.8205C40.9155 43.3248 41.7751 44.1453 43.2879 44.2479C44.732 44.3162 46.2105 44.3162 47.6545 44.2479C49.2705 44.1453 50.0613 43.2564 50.1301 41.6496C50.1645 40.453 50.1301 39.3248 50.1301 38.1624ZM50.1301 38.1624V34.7094C50.1301 34.641 50.1301 34.5727 50.1301 34.5043C50.027 33.0342 49.3393 32.1795 47.8608 32.0769C46.3136 31.9402 44.732 31.9402 43.1504 32.0769C41.6719 32.1795 40.9155 33.0342 40.8811 34.4701C40.8124 36.9316 40.8124 39.359 40.8811 41.8205C40.9155 43.3248 41.7751 44.1453 43.2879 44.2479C44.732 44.3162 46.2105 44.3162 47.6545 44.2479C49.2705 44.1453 50.0613 43.2564 50.1301 41.6496C50.1645 40.453 50.1301 39.3248 50.1301 38.1624ZM50.1301 38.1624V34.7094C50.1301 34.641 50.1301 34.5727 50.1301 34.5043C50.027 33.0342 49.3393 32.1795 47.8608 32.0769C46.3136 31.9402 44.732 31.9402 43.1504 32.0769C41.6719 32.1795 40.9155 33.0342 40.8811 34.4701C40.8124 36.9316 40.8124 39.359 40.8811 41.8205C40.9155 43.3248 41.7751 44.1453 43.2879 44.2479C44.732 44.3162 46.2105 44.3162 47.6545 44.2479C49.2705 44.1453 50.0613 43.2564 50.1301 41.6496C50.1645 40.453 50.1301 39.3248 50.1301 38.1624Z" fill="white"/>
</svg>
