<svg width="169" height="49" viewBox="0 0 169 49" fill="none" xmlns="http://www.w3.org/2000/svg">
<path d="M3.9884 13.2393C3.9884 14.5385 3.9884 15.7692 3.9884 17.0342C3.9884 17.3419 3.9884 17.6154 3.9884 17.9231C3.9884 18.1624 3.95402 18.4017 3.88526 18.641C3.67896 19.3248 2.95692 19.7009 1.82229 19.6325C0.825187 19.5983 0.24068 19.2222 0.0687656 18.5043C0 18.265 0 17.9915 0 17.7521C0 12.3846 0 6.98291 0 1.61538C0 0.487179 0.412593 0.00854701 1.58161 0.00854701C6.3952 0.00854701 11.2088 -0.025641 15.988 0.042735C17.879 0.042735 19.7013 0.316239 21.4205 1.17094C23.0365 1.99145 23.9304 3.2906 24.0336 5.06838C24.068 6.09402 24.1023 7.08547 24.0336 8.11111C23.9304 10.4359 22.4863 11.7692 20.389 12.4872C18.8762 13 17.2945 13.2051 15.7129 13.2051C12.034 13.2393 8.35502 13.2051 4.67606 13.2051C4.46976 13.2393 4.26347 13.2393 3.9884 13.2393ZM3.9884 10.1624C4.09155 10.1966 4.16032 10.1966 4.22908 10.1966C8.25187 10.1966 12.2403 10.2308 16.2631 10.1624C17.157 10.1624 18.051 9.8547 18.9105 9.54701C19.7013 9.23932 20.1139 8.55556 20.1139 7.66667C20.1139 7.01709 20.1139 6.36752 20.1139 5.71795C20.1483 4.65812 19.667 3.90598 18.6699 3.59829C17.7759 3.32479 16.8476 3.08547 15.9192 3.08547C12.1027 3.01709 8.28625 3.05128 4.46976 3.05128C4.05717 3.05128 3.95402 3.18803 3.95402 3.5641C3.95402 5.17094 3.95402 6.77778 3.95402 8.38462C3.9884 8.96581 3.9884 9.5812 3.9884 10.1624Z" fill="#494949"/>
<path d="M130.861 18.9145C130.345 18.9145 129.864 18.9145 129.348 18.9145C126.15 18.8803 122.987 18.8803 119.79 18.812C118.517 18.7778 117.28 18.5043 116.145 17.9231C114.873 17.2735 114.013 16.2479 113.945 14.812C113.841 13 113.841 11.1538 113.945 9.34188C114.013 7.76923 115.01 6.74359 116.42 6.09402C117.658 5.54701 118.999 5.30769 120.34 5.30769C123.297 5.2735 126.288 5.30769 129.279 5.37607C130.483 5.41026 131.652 5.71795 132.718 6.29915C133.921 6.94872 134.609 7.94017 134.746 9.30769C134.781 9.64957 134.815 9.95726 134.815 10.2991C134.815 13.2735 134.746 16.2137 134.849 19.188C134.918 21.8889 133.887 23.4957 130.723 24.0427C129.245 24.2821 127.698 24.2479 126.219 24.3162C125.291 24.3504 124.363 24.3504 123.434 24.2821C122.437 24.2479 121.921 23.735 121.921 22.8803C121.921 22.0256 122.471 21.4786 123.469 21.4444C124.844 21.4103 126.219 21.4444 127.595 21.4103C128.179 21.4103 128.764 21.3761 129.314 21.3077C130.655 21.1026 131.033 20.5556 130.861 18.9145ZM130.895 16.0427C130.895 13.9231 130.895 11.8718 130.895 9.78633C130.895 9.30769 130.655 8.89744 130.242 8.7265C129.657 8.52137 129.073 8.28205 128.488 8.28205C125.738 8.24786 122.987 8.24786 120.271 8.28205C119.79 8.28205 119.274 8.4188 118.793 8.58974C118.139 8.79487 117.795 9.23932 117.83 9.95726C117.864 11.4274 117.864 12.9316 117.83 14.4017C117.83 15.0513 118.139 15.4957 118.724 15.6667C119.308 15.8376 119.962 16.0085 120.58 16.0085C123.95 16.0427 127.319 16.0427 130.723 16.0427C130.723 16.0769 130.792 16.0769 130.895 16.0427Z" fill="#494949"/>
<path d="M46.4855 13.5812C46.4855 14.1966 46.4511 14.7436 46.4855 15.3248C46.5199 15.8718 46.8981 16.2479 47.4139 16.3504C48.239 16.5214 49.0986 16.6581 49.9582 16.6923C51.0928 16.7607 52.2618 16.6923 53.3965 16.6923C53.6715 16.6923 53.9466 16.6923 54.256 16.7265C55.0812 16.8291 55.5282 17.2735 55.5626 18.0598C55.597 18.8462 55.2188 19.3248 54.428 19.4957C54.3592 19.4957 54.2904 19.5299 54.2217 19.5299C51.6773 19.4957 49.0986 19.7692 46.5887 19.2222C46.0729 19.1197 45.5228 18.9487 45.0415 18.7094C43.4942 18.0256 42.7378 16.8291 42.7034 15.1538C42.7034 13.2393 42.7034 11.3248 42.7034 9.44444C42.7034 7.59829 43.563 6.33333 45.3165 5.82051C46.3136 5.51282 47.3795 5.30769 48.411 5.30769C51.6429 5.23932 54.8749 5.2735 58.1413 5.2735C59.3103 5.2735 60.4449 5.44444 61.5452 5.88889C62.9205 6.47009 63.6425 7.49573 63.6425 8.96581C63.6425 10.0256 63.6425 11.0855 63.6425 12.1795C63.6425 13 63.2987 13.4103 62.4735 13.5128C62.1985 13.547 61.9578 13.547 61.6827 13.547C56.766 13.547 51.8492 13.547 46.9325 13.547C46.795 13.5812 46.6574 13.5812 46.4855 13.5812ZM46.4855 11.0855C46.6574 11.0855 46.795 11.1197 46.8981 11.1197C51.0241 11.1197 55.15 11.1197 59.2759 11.1197C59.3791 11.1197 59.4822 11.1538 59.551 11.1197C59.6541 11.0513 59.8261 10.9487 59.8604 10.8462C60.2043 9.13675 59.6885 8.4188 57.935 8.17949C57.7631 8.1453 57.6256 8.1453 57.4536 8.1453C54.6343 8.1453 51.7805 8.11111 48.9611 8.1453C48.411 8.1453 47.8608 8.28205 47.3107 8.45299C46.8294 8.58974 46.5199 8.96581 46.5199 9.51282C46.4511 10.0256 46.4855 10.5385 46.4855 11.0855Z" fill="#494949"/>
<path d="M158.677 5.17094C160.568 5.2735 162.459 5.30769 164.315 5.51282C165.244 5.61539 166.172 5.95726 166.997 6.40171C168.235 7.01709 168.923 8.07692 168.957 9.47863C169.026 11.3248 168.991 13.2051 168.991 15.0513C168.957 17.0684 167.857 18.3333 166 18.9145C164.9 19.2564 163.731 19.4957 162.596 19.5299C159.674 19.5983 156.717 19.5299 153.794 19.4615C152.66 19.4274 151.559 19.1197 150.562 18.5726C149.29 17.9231 148.465 16.8974 148.43 15.4615C148.362 13.4103 148.327 11.359 148.43 9.30769C148.534 7.49573 149.737 6.36752 151.422 5.88889C152.66 5.54701 153.932 5.37607 155.204 5.2735C156.373 5.17094 157.542 5.23932 158.677 5.23932C158.677 5.23932 158.677 5.20513 158.677 5.17094ZM158.677 16.6239C158.677 16.5897 158.677 16.5556 158.677 16.5214C159.983 16.5214 161.324 16.5556 162.631 16.5214C163.146 16.5214 163.628 16.3846 164.109 16.2137C164.865 15.9402 165.106 15.5299 165.106 14.7436C165.106 13.3077 165.106 11.8718 165.106 10.4359C165.106 9.17094 164.728 8.7265 163.49 8.45299C163.215 8.38461 162.906 8.35043 162.596 8.35043C159.949 8.35043 157.301 8.31624 154.688 8.35043C154.104 8.35043 153.519 8.55556 152.969 8.76068C152.488 8.93162 152.213 9.34188 152.213 9.92308C152.213 11.5983 152.213 13.2735 152.213 14.9487C152.213 15.4615 152.453 15.8376 152.9 16.0427C153.21 16.2137 153.588 16.3846 153.932 16.3846C155.513 16.4872 157.095 16.5556 158.677 16.6239Z" fill="#494949"/>
<path d="M74.9201 16.6239C76.9143 16.6239 78.9429 16.6239 80.9371 16.6239C81.0058 16.6239 81.0746 16.6239 81.1434 16.6239C82.6562 16.5214 83.0688 16.0427 82.7938 14.5385C82.7594 14.2991 82.4499 14.0256 82.2092 13.9915C81.5216 13.8547 80.8339 13.7179 80.1119 13.7179C77.8082 13.6838 75.539 13.7521 73.2353 13.6838C72.0319 13.6496 70.7942 13.4786 69.6595 13.1368C67.906 12.6581 67.2871 11.7009 67.2871 9.88889C67.2871 9.47863 67.2871 9.06838 67.3215 8.69231C67.4934 7.35897 68.2842 6.4359 69.522 6.02564C70.5879 5.68376 71.6881 5.41026 72.7884 5.34188C74.5763 5.23932 76.3298 5.2735 78.1177 5.30769C79.2523 5.34188 79.8025 6.12821 79.5274 7.15385C79.3555 7.76923 78.8054 8.11111 77.9458 8.1453C76.5361 8.17949 75.1264 8.1453 73.7167 8.17949C73.1666 8.17949 72.5821 8.24786 72.0319 8.38462C71.138 8.58974 70.6566 9.68376 71.138 10.5043C71.2755 10.7436 71.585 10.9145 71.86 10.9829C72.4789 11.1197 73.0978 11.188 73.7511 11.2222C76.0547 11.2564 78.3584 11.188 80.662 11.2564C81.8654 11.2906 83.1032 11.4615 84.2378 11.8034C85.9226 12.2821 86.5071 13.1709 86.5071 14.9487C86.5071 15.2564 86.5071 15.5641 86.5071 15.906C86.5415 17.3419 85.8194 18.2991 84.5817 18.8803C83.3095 19.4615 81.8998 19.6325 80.5245 19.6667C76.6392 19.7009 72.754 19.7009 68.8343 19.6667C67.7341 19.6667 67.1496 19.188 67.1496 18.2991C67.1152 17.4103 67.5622 16.9316 68.4561 16.8291C68.7312 16.7949 69.0063 16.7949 69.3157 16.7949C71.1724 16.7949 73.0634 16.7949 74.9201 16.7949C74.9201 16.6581 74.9201 16.6581 74.9201 16.6239Z" fill="#494949"/>
<path d="M95.1028 8.24786C95.1028 9.54701 95.1028 10.7094 95.1028 11.906C95.1028 13.9231 95.1028 15.9744 95.1028 17.9915C95.1028 18.9487 94.6902 19.4615 93.7275 19.5983C93.2461 19.6667 92.7304 19.6325 92.2834 19.4957C91.6989 19.359 91.3207 18.9487 91.2863 18.2991C91.2863 18.0598 91.2519 17.8547 91.2519 17.6154C91.2519 14.7436 91.2519 11.8376 91.2519 8.96581C91.2519 8.76068 91.2519 8.55556 91.2519 8.28205C90.8393 8.24786 74.6106 8.1453 74.2324 8.11111C73.3385 8.04274 72.8571 7.59829 72.8227 6.81197C72.7884 5.92308 73.201 5.41026 74.1293 5.30769C74.5075 5.2735 90.7706 5.41026 91.2519 5.41026C91.2519 4.65812 91.2519 4.00855 91.2519 3.32479C91.2519 2.64103 91.2863 1.95726 92.0427 1.61538C92.9023 1.23932 93.8306 1.20513 94.5871 1.78632C94.8965 1.99145 95.0684 2.53846 95.1028 2.91453C95.1716 3.70086 95.1372 4.48718 95.1372 5.34188C95.3435 5.34188 95.5154 5.34188 95.7217 5.34188C97.0626 5.34188 98.4379 5.34188 99.7789 5.34188C100.845 5.37607 101.36 5.88889 101.36 6.77778C101.36 7.63248 100.879 8.1453 99.9851 8.17949C98.6098 8.21368 97.2001 8.21368 95.8248 8.21368C95.5842 8.24786 95.3435 8.24786 95.1028 8.24786Z" fill="#494949"/>
<path d="M27.9876 13.7863C27.9876 12.6581 28.022 11.4957 27.9876 10.3675C27.8501 7.32479 29.638 6.23077 31.5634 5.71795C33.592 5.13675 35.7237 5.20513 37.8211 5.30769C38.7838 5.34188 39.2308 5.88889 39.2308 6.81197C39.2308 7.66667 38.7494 8.17949 37.7523 8.24786C36.6521 8.31624 35.5862 8.28205 34.4859 8.35043C33.9358 8.38462 33.3857 8.48718 32.9043 8.65812C32.1135 8.89744 31.8728 9.30769 31.8728 10.1624C31.8728 12.7265 31.8728 15.3248 31.8728 17.8889C31.8728 18.6068 31.7697 19.2564 31.0133 19.5299C30.1193 19.8376 29.2254 19.906 28.4689 19.2222C28.1939 18.9829 28.0564 18.4701 28.0564 18.094C27.9532 16.6239 27.9876 15.2222 27.9876 13.7863Z" fill="#494949"/>
<path d="M143.583 12.3846C143.583 14.2308 143.583 16.0769 143.583 17.9573C143.583 19.0171 143.136 19.5299 142.104 19.6325C141.691 19.6667 141.244 19.6325 140.866 19.5641C140.144 19.4274 139.835 19.0171 139.766 18.2991C139.732 18.094 139.732 17.8889 139.732 17.6838C139.732 14.1624 139.732 10.6068 139.732 7.08547C139.732 6.40171 139.732 5.64957 140.488 5.34188C141.348 4.96581 142.207 4.96581 143.032 5.44444C143.514 5.71795 143.617 6.19658 143.617 6.7094C143.583 8.58974 143.583 10.4701 143.583 12.3846Z" fill="#494949"/>
<path d="M109.131 12.3504C109.131 14.1966 109.131 16.0427 109.131 17.9231C109.131 19.0513 108.615 19.5983 107.481 19.6667C107.102 19.7009 106.69 19.6667 106.346 19.5641C105.761 19.4273 105.383 19.0171 105.314 18.4017C105.28 18.1624 105.28 17.9573 105.28 17.7179C105.28 14.1624 105.28 10.6068 105.28 7.08547C105.28 6.40171 105.28 5.68376 106.002 5.37607C106.862 4.96581 107.756 5 108.581 5.47863C109.062 5.75214 109.165 6.23077 109.165 6.74359C109.131 8.58974 109.131 10.4701 109.131 12.3504Z" fill="#494949"/>
<path d="M141.588 3.42735C141.348 3.39316 141.038 3.39316 140.763 3.2906C139.972 3.08547 139.56 2.53846 139.594 1.71795C139.628 0.897436 140.007 0.384615 140.832 0.247863C141.348 0.179487 141.898 0.145299 142.379 0.247863C143.307 0.384615 143.72 0.965812 143.686 1.92308C143.651 2.74359 143.136 3.2906 142.276 3.42735C142.07 3.39316 141.863 3.39316 141.588 3.42735Z" fill="#494949"/>
<path d="M107.137 3.42735C106.896 3.39316 106.587 3.39316 106.312 3.2906C105.521 3.08547 105.143 2.50427 105.177 1.68376C105.211 0.863248 105.59 0.350427 106.415 0.213675C106.93 0.145299 107.481 0.111111 107.962 0.213675C108.89 0.350427 109.303 0.931624 109.268 1.88889C109.234 2.7094 108.718 3.25641 107.859 3.39316C107.618 3.39316 107.412 3.42735 107.137 3.42735Z" fill="#494949"/>
<path d="M165.656 26.4017H3.30075L0 24.3504C0 31.6667 0 30.9829 0 36.6581V38.7436C0 44.4188 4.60729 49 10.3148 49H158.677C164.384 49 168.991 44.4188 168.991 38.7436V24.6923L165.656 26.4017Z" fill="#494949"/>
<path d="M39.4806 35.6594C38.2993 37.2369 37.1181 38.821 35.9305 40.3985C35.242 41.3198 34.5535 42.2412 33.8649 43.1625C33.0311 44.2826 31.8751 44.276 31.035 43.1558C29.241 40.7498 27.4471 38.3571 25.6594 35.9577C25.5899 35.8649 25.5141 35.7721 25.3752 35.5998C25.3752 35.8052 25.3752 35.9179 25.3752 36.0306C25.3752 38.2643 25.3752 40.4913 25.3752 42.725C25.3752 43.1691 25.3625 43.6198 24.9077 43.8253C24.3834 44.0639 23.8402 44.0771 23.3348 43.7457C23.0316 43.5469 23 43.2022 23 42.8642C23 41.5054 23 40.1467 23 38.7879C23 36.8127 23 34.8309 23 32.8557C23 32.3719 22.9874 31.8681 23.4801 31.6162C24.036 31.3379 24.6171 31.3644 25.1288 31.7422C25.3815 31.9278 25.5836 32.1995 25.7794 32.458C27.9524 35.3413 30.1191 38.2311 32.2857 41.121C32.33 41.1807 32.3805 41.2403 32.45 41.3265C32.6711 41.0348 32.8858 40.7565 33.1006 40.4714C35.1599 37.734 37.2255 34.9966 39.2784 32.2525C39.7648 31.5964 40.3713 31.318 41.1545 31.5102C41.622 31.6229 41.8557 31.9145 41.8873 32.4116C41.8936 32.5442 41.8999 32.6767 41.8999 32.8093C41.8999 36.1101 41.8999 39.4109 41.8999 42.7184C41.8999 43.1625 41.9062 43.6132 41.4514 43.8253C40.9334 44.0639 40.4028 44.0705 39.9038 43.759C39.5816 43.5602 39.5501 43.2089 39.5501 42.8509C39.5501 40.5775 39.5501 38.304 39.5501 36.024C39.5501 35.9047 39.5501 35.792 39.5501 35.6727C39.5248 35.6727 39.5059 35.666 39.4806 35.6594Z" fill="white"/>
<path d="M144.674 34.8972C144.674 34.0156 144.674 33.1739 144.674 32.3387C144.674 31.2186 145.635 30.6552 146.576 31.2252C146.885 31.4108 146.986 31.709 146.986 32.0603C146.986 32.9087 146.986 33.7638 146.986 34.6122C146.986 36.6338 146.955 38.6553 146.999 40.6769C147.037 42.5593 146.033 43.3017 144.788 43.6331C144.251 43.7723 143.689 43.8783 143.139 43.8849C141.364 43.8982 139.583 43.8849 137.802 43.8319C137.082 43.812 136.387 43.6132 135.755 43.2354C134.978 42.7714 134.555 42.0755 134.542 41.1343C134.523 40.0605 134.53 38.9934 134.536 37.9196C134.542 36.5675 135.098 35.6926 136.349 35.3081C137.088 35.0828 137.871 34.9436 138.642 34.9171C140.524 34.864 142.413 34.8972 144.295 34.8972C144.403 34.8972 144.516 34.8972 144.674 34.8972ZM144.674 36.8326C144.599 36.8127 144.567 36.7995 144.542 36.7995C142.451 36.8061 140.354 36.8061 138.263 36.8326C137.96 36.8392 137.644 36.9453 137.347 37.0579C136.993 37.1971 136.81 37.4888 136.816 37.9064C136.829 38.821 136.816 39.7357 136.816 40.657C136.816 41.4657 137.05 41.7639 137.802 41.923C137.966 41.9561 138.137 41.9959 138.301 41.9959C139.918 42.0025 141.541 42.0092 143.158 41.9893C143.468 41.9827 143.784 41.8899 144.081 41.7904C144.485 41.6513 144.687 41.3464 144.674 40.8824C144.662 40.4383 144.674 40.0008 144.674 39.5568C144.681 38.6553 144.674 37.7473 144.674 36.8326Z" fill="white"/>
<path d="M82.0622 34.8972C82.8139 34.8972 83.5151 34.8905 84.2225 34.8972C85.8017 34.9171 87.3809 34.9171 88.9538 34.9701C89.6803 34.9966 90.3877 35.1954 91.0321 35.5799C91.7901 36.0372 92.2133 36.7332 92.2259 37.6611C92.2449 38.7349 92.2386 39.802 92.2322 40.8758C92.2259 42.2279 91.6637 43.0962 90.4256 43.5005C89.7687 43.7126 89.0675 43.8651 88.3853 43.8783C86.5976 43.9181 84.81 43.8849 83.0223 43.8319C82.2201 43.8054 81.4431 43.58 80.7672 43.0829C80.1356 42.6256 79.7881 41.976 79.7818 41.1807C79.7629 38.1251 79.7692 35.0629 79.7755 32.0073C79.7755 31.5168 80.0092 31.2186 80.464 31.1191C80.6978 31.0661 80.9441 31.0462 81.1841 31.0727C81.7842 31.1456 82.0496 31.4704 82.0559 32.1067C82.0685 33.028 82.0622 33.9427 82.0622 34.8972ZM82.1064 36.8193C82.0874 36.8591 82.0748 36.879 82.0748 36.8922C82.0748 38.2643 82.0685 39.6297 82.0748 41.0017C82.0748 41.3265 82.2391 41.5916 82.5233 41.7043C82.8518 41.8368 83.2055 41.9694 83.5529 41.976C85.1827 42.0025 86.8124 42.0025 88.4485 41.9827C88.7454 41.976 89.0486 41.8832 89.3391 41.7838C89.7245 41.6512 89.9266 41.353 89.9203 40.9023C89.9077 39.8948 89.9077 38.8939 89.9203 37.8865C89.9266 37.449 89.7371 37.1574 89.3644 37.0248C89.0612 36.9188 88.7327 36.8193 88.4169 36.8193C86.3766 36.7928 84.3362 36.7928 82.2896 36.7862C82.2138 36.7928 82.1569 36.8127 82.1064 36.8193Z" fill="white"/>
<path d="M120.487 37.9461C120.569 37.343 120.405 37.0182 119.887 36.8591C119.59 36.7663 119.268 36.7133 118.959 36.7C118.194 36.6801 117.424 36.6934 116.653 36.6868C116.476 36.6868 116.293 36.6669 116.122 36.6271C115.705 36.5211 115.51 36.2493 115.503 35.792C115.497 35.3346 115.693 35.0695 116.11 34.9436C116.173 34.9237 116.23 34.9038 116.293 34.9038C117.67 34.9104 119.053 34.7712 120.418 35.0496C120.854 35.1424 121.29 35.3147 121.681 35.5401C122.338 35.9113 122.717 36.5277 122.73 37.3098C122.761 38.7084 122.761 40.1135 122.736 41.5121C122.717 42.4267 122.25 43.063 121.473 43.4475C120.791 43.7855 120.064 43.8916 119.325 43.8982C117.285 43.9114 115.244 43.938 113.204 43.8849C112.522 43.865 111.821 43.7126 111.176 43.4939C110.298 43.189 109.869 42.4665 109.856 41.4922C109.85 41.1144 109.85 40.7432 109.856 40.3654C109.875 39.4043 110.305 38.7349 111.145 38.3571C111.821 38.0522 112.547 37.9594 113.274 37.9527C115.567 37.9395 117.86 37.9461 120.153 37.9461C120.266 37.9461 120.38 37.9461 120.487 37.9461ZM120.519 39.5104C120.456 39.4971 120.424 39.4772 120.399 39.4772C118.106 39.4772 115.813 39.4772 113.526 39.4905C113.229 39.4905 112.92 39.5766 112.636 39.6694C112.294 39.7821 112.105 40.0472 112.124 40.4449C112.13 40.6769 112.137 40.9089 112.124 41.1409C112.105 41.5253 112.288 41.7838 112.617 41.8965C112.901 41.9893 113.21 42.0622 113.507 42.0688C115.377 42.0821 117.247 42.0821 119.123 42.0688C119.439 42.0688 119.767 41.976 120.07 41.87C120.361 41.7706 120.525 41.5187 120.525 41.1873C120.525 40.6305 120.519 40.0804 120.519 39.5104Z" fill="white"/>
<path d="M101.246 34.8375C102.371 34.9038 103.495 34.9369 104.613 35.0364C105.276 35.096 105.908 35.328 106.458 35.7522C107.02 36.1764 107.361 36.7531 107.386 37.4822C107.424 38.6752 107.424 39.8683 107.412 41.0613C107.399 42.334 106.729 43.136 105.624 43.5005C104.967 43.7192 104.266 43.8717 103.584 43.8849C101.84 43.9247 100.09 43.8916 98.3469 43.8385C97.6647 43.8187 96.9951 43.6264 96.3824 43.2818C95.6307 42.8642 95.138 42.2213 95.1064 41.3265C95.0559 40.0472 95.0432 38.7614 95.1064 37.4822C95.1632 36.3355 95.877 35.6196 96.8751 35.3147C97.6142 35.0894 98.3975 34.9833 99.1681 34.9104C99.8566 34.8442 100.558 34.8972 101.253 34.8972C101.246 34.8839 101.246 34.8574 101.246 34.8375ZM101.246 42.0622C101.246 42.0423 101.246 42.0158 101.246 41.9959C102.036 41.9959 102.826 42.0158 103.615 41.9893C103.912 41.976 104.222 41.8965 104.506 41.7971C104.954 41.6314 105.112 41.3662 105.112 40.8691C105.112 39.9611 105.112 39.0596 105.112 38.1516C105.112 37.3562 104.891 37.0646 104.146 36.9055C103.969 36.8657 103.792 36.8326 103.615 36.8326C102.036 36.826 100.457 36.8127 98.8775 36.8392C98.5301 36.8459 98.1764 36.9718 97.8479 37.0977C97.551 37.2104 97.3931 37.4689 97.3931 37.8202C97.3931 38.8807 97.3931 39.9412 97.3931 41.0017C97.3931 41.3198 97.5321 41.5585 97.791 41.6976C97.9869 41.8037 98.2016 41.9097 98.4101 41.923C99.3513 41.9827 100.299 42.0158 101.246 42.0622Z" fill="white"/>
<path d="M57.0603 38.4963C57.0603 39.2784 57.0666 40.0671 57.0603 40.8492C57.0476 42.2412 56.4854 43.1028 55.2158 43.5138C54.5714 43.7192 53.8829 43.8717 53.207 43.8849C51.5267 43.9247 49.8401 43.8916 48.1599 43.8385C47.3703 43.812 46.5996 43.5867 45.93 43.1094C45.2857 42.6455 44.932 41.9959 44.9257 41.1873C44.9067 39.3645 44.913 37.5418 44.9194 35.7191C44.9194 35.222 45.1468 34.9303 45.6079 34.8375C45.8416 34.7911 46.0943 34.7712 46.328 34.7978C46.9407 34.8707 47.1997 35.1822 47.1997 35.8317C47.206 37.4755 47.1997 39.1259 47.1997 40.7697C47.1997 41.4126 47.3892 41.7043 47.9893 41.8634C48.3431 41.9561 48.7158 42.0092 49.0758 42.0158C50.4655 42.0291 51.8552 42.0224 53.2449 42.0025C53.4913 42.0025 53.7503 41.9429 53.9903 41.87C54.5588 41.6976 54.742 41.4259 54.742 40.8161C54.742 39.2452 54.7799 37.681 54.7294 36.1101C54.6915 34.9104 55.3231 34.6917 56.2391 34.8176C56.8265 34.8972 57.0539 35.2021 57.0603 35.8251C57.0666 36.7067 57.0603 37.6015 57.0603 38.4963Z" fill="white"/>
<path d="M66.1691 34.9369C66.1691 34.4796 66.1691 34.0289 66.1691 33.5782C66.1691 33.1341 66.2512 32.743 66.6997 32.5508C67.2114 32.3387 67.9757 32.4183 68.241 32.7695C68.3737 32.9419 68.4495 33.2004 68.4684 33.4324C68.5 33.9228 68.481 34.42 68.481 34.9635C68.6137 34.9635 68.7274 34.9635 68.8411 34.9635C69.6307 34.9635 70.4203 34.9568 71.2099 34.9701C71.5889 34.9767 71.9553 35.0496 72.1385 35.4672C72.4101 36.0902 72.069 36.7199 71.412 36.7531C70.5719 36.7928 69.7318 36.7729 68.8853 36.7796C68.759 36.7796 68.639 36.7796 68.4874 36.7796C68.4874 36.9453 68.4874 37.0646 68.4874 37.1839C68.4874 39.0729 68.4874 40.9619 68.4874 42.8509C68.4874 43.6132 68.1652 43.9645 67.4325 43.9711C67.1861 43.9711 66.9271 43.9247 66.6934 43.8518C66.3965 43.759 66.2323 43.5138 66.2007 43.189C66.1817 43.0233 66.1817 42.8576 66.1817 42.6919C66.1817 40.8691 66.1817 39.0464 66.1817 37.2237C66.1817 37.0911 66.1817 36.9652 66.1817 36.8061C65.9101 36.7928 65.6701 36.7862 65.4363 36.7597C64.9373 36.7133 64.6531 36.4216 64.6278 35.9577C64.6025 35.4142 64.8173 35.1026 65.3353 35.0032C65.588 34.9568 65.8596 34.9635 66.1691 34.9369Z" fill="white"/>
<path d="M62.2843 37.5153C62.2843 39.2916 62.2843 41.0746 62.2843 42.8509C62.2843 43.5999 61.9684 43.9512 61.2546 43.9711C61.0146 43.9777 60.7682 43.9446 60.5408 43.8783C60.2187 43.7855 60.0292 43.5403 59.9913 43.1824C59.9723 43.0299 59.966 42.8775 59.966 42.7184C59.966 39.2519 59.966 35.7853 59.966 32.3122C59.966 31.8814 59.9597 31.4373 60.3955 31.2186C60.8946 30.9667 61.4189 30.9733 61.9116 31.2517C62.2211 31.4307 62.2843 31.7621 62.2843 32.1067C62.2843 33.9162 62.2843 35.7124 62.2843 37.5153Z" fill="white"/>
<path d="M125.636 40.266C125.636 39.5501 125.636 38.8277 125.636 38.1118C125.636 36.468 126.292 35.5799 127.809 35.1689C129.015 34.8375 130.253 34.8707 131.479 34.9171C132.06 34.9369 132.338 35.2816 132.338 35.8384C132.338 36.3951 132.053 36.7265 131.472 36.7597C130.834 36.7994 130.19 36.7796 129.546 36.8127C129.223 36.8326 128.895 36.8856 128.585 36.9784C128.08 37.1375 127.91 37.4092 127.91 37.9527C127.91 39.5634 127.903 41.174 127.91 42.7913C127.91 43.2354 127.865 43.653 127.417 43.8385C126.905 44.0506 126.368 44.0772 125.92 43.6993C125.749 43.5535 125.642 43.2287 125.629 42.9769C125.617 42.0755 125.636 41.174 125.636 40.266Z" fill="white"/>
<path d="M76.8761 39.3778C76.8761 40.5444 76.8761 41.7175 76.8761 42.8841C76.8761 43.58 76.5729 43.9247 75.9096 43.9645C75.6696 43.9777 75.4232 43.9578 75.1958 43.8982C74.8358 43.8054 74.6147 43.5535 74.5831 43.1492C74.5704 43.0166 74.5641 42.8841 74.5641 42.7515C74.5641 40.498 74.5641 38.251 74.5641 35.9974C74.5641 35.5732 74.5641 35.1225 75.0063 34.9171C75.518 34.6718 76.0549 34.6784 76.5476 34.9833C76.8256 35.1557 76.8824 35.4738 76.8824 35.792C76.8761 36.9917 76.8761 38.1847 76.8761 39.3778Z" fill="white"/>
<path d="M75.6822 33.7704C74.7789 33.7107 74.3367 33.2004 74.5452 32.3851C74.5957 32.1796 74.7473 31.9477 74.9179 31.8482C75.4359 31.5566 75.9917 31.5632 76.5223 31.835C76.8824 32.0206 76.9519 32.3785 76.9393 32.7629C76.9203 33.1473 76.7687 33.4589 76.4213 33.5914C76.1812 33.6909 75.9286 33.7174 75.6822 33.7704Z" fill="white"/>
</svg>
