<svg width="268" height="97" viewBox="0 0 268 97" fill="none" xmlns="http://www.w3.org/2000/svg">
<circle cx="28.3811" cy="6.81933" r="6.81933" fill="#1683B5"/>
<path d="M47.9466 79.6554C47.6318 73.9565 44.1753 57.1642 38.0708 44.665C29.262 26.6288 0.707275 8.8811 0.707275 8.8811C0.707275 8.8811 28.0852 17.2499 43.722 35.7912C61.6631 57.065 55.3087 75.9694 53.0784 82.897C51.2618 88.5396 46.8113 96.898 46.8113 96.898C46.8113 96.898 48.2914 85.896 47.9466 79.6554Z" fill="url(#paint0_linear_91_228)"/>
<g filter="url(#filter0_b_91_228)">
<path d="M54.7133 54.4574C45.137 21.7483 0.707275 8.8811 0.707275 8.8811C0.707275 8.8811 21.4704 19.2913 23.1053 45.8526C24.0555 61.2886 10.0807 78.8863 10.0807 78.8863C10.0807 78.8863 41.1763 58.5407 51.6615 69.2605C58.3711 76.1202 47.8369 94.8058 47.8369 94.8058C47.8369 94.8058 60.6754 74.8216 54.7133 54.4574Z" fill="url(#paint1_linear_91_228)"/>
</g>
<path d="M74.7167 29.199C76.4834 29.0656 77.9001 28.999 78.9667 28.999C81.0834 28.999 82.6584 29.3323 83.6917 29.999C84.7251 30.6656 85.2417 31.6573 85.2417 32.974C85.2417 34.1073 84.9167 35.049 84.2667 35.799C83.6334 36.549 82.7834 37.049 81.7167 37.299L81.6917 37.349C82.9084 37.5323 83.8751 37.9656 84.5917 38.649C85.3251 39.3323 85.6917 40.3073 85.6917 41.574C85.6917 43.324 85.0751 44.6906 83.8417 45.674C82.6251 46.6573 80.6667 47.149 77.9667 47.149C76.9001 47.149 75.3001 47.0823 73.1667 46.949L74.7167 29.199ZM75.1917 45.499C76.3251 45.549 77.3584 45.5823 78.2917 45.599C80.1751 45.599 81.5501 45.2573 82.4167 44.574C83.3001 43.8906 83.7417 42.9073 83.7417 41.624C83.7417 40.474 83.3417 39.6573 82.5417 39.174C81.7417 38.6906 80.6251 38.449 79.1917 38.449C78.0751 38.449 76.9501 38.4573 75.8167 38.474L75.1917 45.499ZM75.9417 36.849C76.8584 36.8656 77.8417 36.874 78.8917 36.874C80.2084 36.874 81.2751 36.5573 82.0917 35.924C82.9084 35.2906 83.3167 34.399 83.3167 33.249C83.3167 32.299 82.9501 31.6156 82.2167 31.199C81.4834 30.7656 80.4084 30.549 78.9917 30.549C78.3084 30.549 77.4751 30.574 76.4917 30.624L75.9417 36.849ZM90.472 29.874C90.8054 29.874 91.072 29.9823 91.272 30.199C91.4887 30.399 91.597 30.649 91.597 30.949C91.597 31.299 91.472 31.599 91.222 31.849C90.972 32.0823 90.6554 32.199 90.272 32.199C89.9554 32.199 89.6887 32.099 89.472 31.899C89.272 31.699 89.172 31.4406 89.172 31.124C89.172 30.774 89.297 30.4823 89.547 30.249C89.797 29.999 90.1054 29.874 90.472 29.874ZM89.872 46.949H88.072L89.122 34.949H90.922L89.872 46.949ZM96.1187 37.674L95.2937 46.949H93.4937L94.2687 37.899L94.2437 34.949L95.8187 34.874L96.1187 37.674ZM95.9687 36.999C96.6354 36.3656 97.3854 35.824 98.2187 35.374C99.052 34.924 99.8604 34.699 100.644 34.699C101.427 34.699 102.06 34.8323 102.544 35.099C103.027 35.3656 103.385 35.774 103.619 36.324C103.852 36.874 103.969 37.5656 103.969 38.399C103.969 38.8323 103.952 39.2573 103.919 39.674L103.294 46.949H101.469L102.069 39.899C102.102 39.599 102.119 39.224 102.119 38.774C102.102 37.9573 101.919 37.3406 101.569 36.924C101.235 36.4906 100.652 36.274 99.8187 36.274C99.2687 36.274 98.652 36.474 97.9687 36.874C97.2854 37.2573 96.6437 37.7323 96.0437 38.299L95.9687 36.999ZM103.644 37.349C104.377 36.599 105.185 35.974 106.069 35.474C106.952 34.9573 107.802 34.699 108.619 34.699C109.402 34.699 110.035 34.8323 110.519 35.099C111.002 35.3656 111.36 35.774 111.594 36.324C111.827 36.874 111.944 37.5656 111.944 38.399C111.927 38.899 111.91 39.324 111.894 39.674L111.269 46.949H109.444L110.044 39.899C110.077 39.599 110.094 39.224 110.094 38.774C110.077 37.9573 109.894 37.3406 109.544 36.924C109.21 36.4906 108.627 36.274 107.794 36.274C107.21 36.274 106.56 36.499 105.844 36.949C105.144 37.3823 104.469 37.9156 103.819 38.549L103.644 37.349ZM115.509 37.899L115.459 34.949L116.834 34.874L117.059 36.649C117.559 36.1656 118.192 35.724 118.959 35.324C119.726 34.9073 120.484 34.699 121.234 34.699C122.617 34.699 123.767 35.1323 124.684 35.999C125.601 36.8656 126.059 38.224 126.059 40.074C126.059 41.6406 125.726 42.9656 125.059 44.049C124.409 45.1156 123.584 45.9073 122.584 46.424C121.601 46.9406 120.592 47.199 119.559 47.199C118.976 47.199 118.426 47.1323 117.909 46.999C117.392 46.8656 116.942 46.724 116.559 46.574L115.984 53.199H114.159L115.509 37.899ZM116.684 44.999C116.951 45.1323 117.351 45.2823 117.884 45.449C118.434 45.6156 118.959 45.699 119.459 45.699C120.259 45.699 121.017 45.4906 121.734 45.074C122.451 44.6406 123.034 44.0156 123.484 43.199C123.934 42.3656 124.159 41.3906 124.159 40.274C124.159 38.9073 123.842 37.899 123.209 37.249C122.592 36.5823 121.809 36.249 120.859 36.249C120.242 36.249 119.617 36.4406 118.984 36.824C118.351 37.1906 117.784 37.6406 117.284 38.174L116.684 44.999ZM136.831 44.924C136.181 45.574 135.423 46.1156 134.556 46.549C133.706 46.9823 132.915 47.199 132.181 47.199C130.848 47.199 129.873 46.8073 129.256 46.024C128.656 45.224 128.431 43.9573 128.581 42.224L129.206 34.949H131.006L130.406 41.999C130.306 43.1823 130.431 44.0823 130.781 44.699C131.148 45.299 131.831 45.599 132.831 45.599C133.415 45.599 134.081 45.399 134.831 44.999C135.598 44.5823 136.248 44.1156 136.781 43.599L137.556 34.949H139.356L138.306 46.949H136.656L136.831 44.924ZM153.631 34.949L152.581 46.949H150.781L151.706 36.474H147.081L145.631 41.349C145.181 42.8323 144.74 43.974 144.306 44.774C143.89 45.5573 143.365 46.1323 142.731 46.499C142.098 46.849 141.265 47.024 140.231 47.024L140.356 45.499C140.923 45.499 141.406 45.374 141.806 45.124C142.206 44.8573 142.573 44.4073 142.906 43.774C143.24 43.1406 143.581 42.2323 143.931 41.049L145.756 34.949H153.631ZM166.463 46.949L165.088 47.024L164.713 44.899L165.413 44.474C165.247 44.874 164.905 45.2823 164.388 45.699C163.888 46.1156 163.305 46.474 162.638 46.774C161.988 47.0573 161.338 47.199 160.688 47.199C159.305 47.199 158.155 46.7656 157.238 45.899C156.322 45.0323 155.863 43.674 155.863 41.824C155.863 40.2573 156.188 38.9406 156.838 37.874C157.505 36.7906 158.33 35.9906 159.313 35.474C160.313 34.9573 161.338 34.699 162.388 34.699C163.238 34.699 164.097 34.8073 164.963 35.024C165.83 35.2406 166.555 35.499 167.138 35.799L166.413 43.999L166.463 46.949ZM165.238 36.849C164.888 36.6323 164.463 36.4656 163.963 36.349C163.463 36.2156 162.963 36.149 162.463 36.149C161.663 36.149 160.905 36.3656 160.188 36.799C159.472 37.2156 158.888 37.8406 158.438 38.674C157.988 39.4906 157.763 40.4573 157.763 41.574C157.763 42.9406 158.072 43.9573 158.688 44.624C159.322 45.274 160.113 45.599 161.063 45.599C161.663 45.599 162.28 45.4156 162.913 45.049C163.563 44.6823 164.138 44.224 164.638 43.674L165.238 36.849ZM185.146 37.824C184.746 37.324 184.254 36.9323 183.671 36.649C183.088 36.3656 182.454 36.224 181.771 36.224C180.921 36.224 180.146 36.4573 179.446 36.924C178.746 37.374 178.196 37.999 177.796 38.799C177.413 39.599 177.221 40.4823 177.221 41.449C177.221 42.2656 177.371 42.9906 177.671 43.624C177.988 44.2406 178.429 44.7323 178.996 45.099C179.563 45.449 180.221 45.624 180.971 45.624C181.654 45.624 182.313 45.4823 182.946 45.199C183.579 44.899 184.171 44.4906 184.721 43.974L185.271 45.124C184.654 45.7573 183.946 46.2573 183.146 46.624C182.346 46.9906 181.488 47.174 180.571 47.174C179.538 47.174 178.621 46.9323 177.821 46.449C177.038 45.9656 176.429 45.3073 175.996 44.474C175.563 43.624 175.346 42.6656 175.346 41.599C175.346 40.3656 175.621 39.224 176.171 38.174C176.721 37.1073 177.479 36.2656 178.446 35.649C179.429 35.0156 180.529 34.699 181.746 34.699C182.596 34.699 183.379 34.8656 184.096 35.199C184.829 35.5156 185.438 35.9656 185.921 36.549L185.146 37.824ZM187.388 39.849C187.488 38.749 187.805 37.8156 188.338 37.049C188.888 36.2823 189.547 35.7073 190.313 35.324C191.097 34.9406 191.905 34.749 192.738 34.749C193.888 34.749 194.83 35.024 195.563 35.574C196.313 36.124 196.688 36.8323 196.688 37.699C196.688 38.399 196.438 39.0073 195.938 39.524C195.438 40.0406 194.797 40.3906 194.013 40.574V40.599C194.947 40.7323 195.688 41.024 196.238 41.474C196.805 41.924 197.088 42.5406 197.088 43.324C197.088 44.074 196.863 44.7323 196.413 45.299C195.963 45.8656 195.355 46.3073 194.588 46.624C193.822 46.9406 192.963 47.099 192.013 47.099C190.997 47.099 190.105 46.8906 189.338 46.474C188.588 46.0573 188.022 45.4573 187.638 44.674C187.272 43.8906 187.13 42.9823 187.213 41.949L187.388 39.849ZM189.013 42.224C188.947 42.924 189.047 43.5406 189.313 44.074C189.58 44.5906 189.963 44.9906 190.463 45.274C190.98 45.5406 191.555 45.674 192.188 45.674C192.705 45.674 193.197 45.5823 193.663 45.399C194.147 45.199 194.53 44.924 194.813 44.574C195.113 44.2073 195.263 43.7823 195.263 43.299C195.263 42.5823 194.922 42.074 194.238 41.774C193.555 41.474 192.647 41.324 191.513 41.324H189.088L189.013 42.224ZM191.463 40.199C192.513 40.199 193.355 39.9906 193.988 39.574C194.622 39.1573 194.938 38.6323 194.938 37.999C194.938 37.449 194.705 37.0156 194.238 36.699C193.772 36.3656 193.238 36.199 192.638 36.199C192.055 36.199 191.513 36.349 191.013 36.649C190.53 36.9323 190.13 37.3323 189.813 37.849C189.497 38.349 189.305 38.9156 189.238 39.549L189.188 40.199H191.463ZM205.623 34.699C206.69 34.699 207.623 34.9406 208.423 35.424C209.24 35.9073 209.865 36.5823 210.298 37.449C210.732 38.299 210.948 39.2656 210.948 40.349C210.948 41.5823 210.665 42.724 210.098 43.774C209.532 44.824 208.757 45.6573 207.773 46.274C206.807 46.8906 205.723 47.199 204.523 47.199C203.457 47.199 202.523 46.9573 201.723 46.474C200.923 45.974 200.298 45.299 199.848 44.449C199.415 43.599 199.198 42.6323 199.198 41.549C199.198 40.3156 199.482 39.174 200.048 38.124C200.615 37.074 201.382 36.2406 202.348 35.624C203.332 35.0073 204.423 34.699 205.623 34.699ZM205.498 36.224C204.665 36.224 203.915 36.4656 203.248 36.949C202.582 37.4156 202.057 38.049 201.673 38.849C201.29 39.649 201.098 40.5156 201.098 41.449C201.098 42.249 201.24 42.9656 201.523 43.599C201.823 44.2323 202.24 44.7323 202.773 45.099C203.323 45.449 203.948 45.624 204.648 45.624C205.482 45.624 206.232 45.3906 206.898 44.924C207.582 44.4406 208.115 43.799 208.498 42.999C208.882 42.199 209.073 41.3323 209.073 40.399C209.073 39.599 208.923 38.8906 208.623 38.274C208.323 37.6406 207.898 37.1406 207.348 36.774C206.815 36.4073 206.198 36.224 205.498 36.224ZM222.77 29.424C223.32 29.224 223.895 28.8656 224.495 28.349L225.17 29.674C224.67 30.2073 224.128 30.6156 223.545 30.899C222.978 31.1656 222.286 31.399 221.47 31.599C220.803 31.7656 220.178 31.9323 219.595 32.099C218.861 32.349 218.228 32.6656 217.695 33.049C217.178 33.4323 216.72 33.9823 216.32 34.699C215.92 35.4156 215.611 36.3573 215.395 37.524H215.47C215.97 36.724 216.628 36.1323 217.445 35.749C218.278 35.349 219.17 35.149 220.12 35.149C221.07 35.149 221.911 35.3906 222.645 35.874C223.395 36.3573 223.97 37.0156 224.37 37.849C224.786 38.6823 224.995 39.6156 224.995 40.649C224.995 41.849 224.72 42.949 224.17 43.949C223.636 44.949 222.886 45.7406 221.92 46.324C220.953 46.9073 219.861 47.199 218.645 47.199C217.595 47.199 216.67 46.9573 215.87 46.474C215.086 45.9906 214.47 45.2823 214.02 44.349C213.57 43.399 213.345 42.2656 213.345 40.949C213.345 38.9656 213.561 37.2656 213.995 35.849C214.445 34.4323 215.086 33.2906 215.92 32.424C216.753 31.5573 217.77 30.9073 218.97 30.474C219.303 30.3406 219.903 30.174 220.77 29.974C221.553 29.8073 222.22 29.624 222.77 29.424ZM221.445 37.124C220.928 36.7573 220.336 36.574 219.67 36.574C218.82 36.574 218.045 36.7823 217.345 37.199C216.645 37.6156 216.095 38.199 215.695 38.949C215.311 39.6823 215.12 40.524 215.12 41.474C215.12 42.274 215.27 42.9906 215.57 43.624C215.87 44.2573 216.295 44.749 216.845 45.099C217.395 45.449 218.028 45.624 218.745 45.624C219.561 45.624 220.303 45.4073 220.97 44.974C221.636 44.524 222.161 43.924 222.545 43.174C222.928 42.424 223.12 41.599 223.12 40.699C223.12 39.9323 222.97 39.2323 222.67 38.599C222.386 37.9656 221.978 37.474 221.445 37.124ZM233.431 34.699C234.498 34.699 235.431 34.9406 236.231 35.424C237.048 35.9073 237.673 36.5823 238.106 37.449C238.539 38.299 238.756 39.2656 238.756 40.349C238.756 41.5823 238.473 42.724 237.906 43.774C237.339 44.824 236.564 45.6573 235.581 46.274C234.614 46.8906 233.531 47.199 232.331 47.199C231.264 47.199 230.331 46.9573 229.531 46.474C228.731 45.974 228.106 45.299 227.656 44.449C227.223 43.599 227.006 42.6323 227.006 41.549C227.006 40.3156 227.289 39.174 227.856 38.124C228.423 37.074 229.189 36.2406 230.156 35.624C231.139 35.0073 232.231 34.699 233.431 34.699ZM233.306 36.224C232.473 36.224 231.723 36.4656 231.056 36.949C230.389 37.4156 229.864 38.049 229.481 38.849C229.098 39.649 228.906 40.5156 228.906 41.449C228.906 42.249 229.048 42.9656 229.331 43.599C229.631 44.2323 230.048 44.7323 230.581 45.099C231.131 45.449 231.756 45.624 232.456 45.624C233.289 45.624 234.039 45.3906 234.706 44.924C235.389 44.4406 235.923 43.799 236.306 42.999C236.689 42.199 236.881 41.3323 236.881 40.399C236.881 39.599 236.731 38.8906 236.431 38.274C236.131 37.6406 235.706 37.1406 235.156 36.774C234.623 36.4073 234.006 36.224 233.306 36.224ZM244.152 28.349C246.919 29.149 249.002 30.4656 250.402 32.299C251.819 34.1323 252.527 36.4323 252.527 39.199C252.527 40.8823 252.236 42.324 251.652 43.524C251.069 44.724 250.277 45.6406 249.277 46.274C248.277 46.8906 247.161 47.199 245.927 47.199C244.877 47.199 243.961 46.949 243.177 46.449C242.394 45.949 241.786 45.2656 241.352 44.399C240.936 43.5156 240.727 42.5323 240.727 41.449C240.727 40.2323 240.994 39.1073 241.527 38.074C242.077 37.0406 242.802 36.224 243.702 35.624C244.619 35.024 245.602 34.724 246.652 34.724C247.569 34.724 248.352 34.9406 249.002 35.374C249.669 35.8073 250.144 36.3573 250.427 37.024H250.502C250.236 35.324 249.511 33.849 248.327 32.599C247.161 31.349 245.544 30.4323 243.477 29.849L244.152 28.349ZM247.002 36.224C246.186 36.224 245.436 36.4573 244.752 36.924C244.086 37.3906 243.552 38.0156 243.152 38.799C242.769 39.5823 242.577 40.4406 242.577 41.374C242.577 42.174 242.727 42.899 243.027 43.549C243.327 44.1823 243.744 44.6906 244.277 45.074C244.811 45.4406 245.436 45.624 246.152 45.624C246.986 45.624 247.736 45.399 248.402 44.949C249.086 44.4823 249.619 43.8573 250.002 43.074C250.402 42.274 250.602 41.3823 250.602 40.399C250.602 39.6156 250.452 38.9073 250.152 38.274C249.852 37.6406 249.427 37.1406 248.877 36.774C248.344 36.4073 247.719 36.224 247.002 36.224ZM263.394 44.924C262.744 45.574 261.986 46.1156 261.119 46.549C260.269 46.9823 259.477 47.199 258.744 47.199C257.411 47.199 256.436 46.8073 255.819 46.024C255.219 45.224 254.994 43.9573 255.144 42.224L255.769 34.949H257.569L256.969 41.999C256.869 43.1823 256.994 44.0823 257.344 44.699C257.711 45.299 258.394 45.599 259.394 45.599C259.977 45.599 260.644 45.399 261.394 44.999C262.161 44.5823 262.811 44.1156 263.344 43.599L264.119 34.949H265.919L264.869 46.949H263.219L263.394 44.924Z" fill="#1683B5"/>
<path d="M115.119 59.009L114.741 63.307C115.432 63.2696 116.076 63.251 116.673 63.251C117.933 63.251 118.853 63.475 119.431 63.923C120.01 64.371 120.299 65.015 120.299 65.855C120.299 66.835 119.963 67.6143 119.291 68.193C118.629 68.7623 117.518 69.047 115.959 69.047C115.409 69.047 114.578 69.0143 113.467 68.949L114.335 59.009H115.119ZM114.293 68.319C115.087 68.3563 115.665 68.375 116.029 68.375C117.28 68.375 118.171 68.1556 118.703 67.717C119.235 67.2783 119.501 66.6856 119.501 65.939C119.501 65.3136 119.273 64.8283 118.815 64.483C118.367 64.1283 117.616 63.951 116.561 63.951C115.973 63.951 115.348 63.9696 114.685 64.007L114.293 68.319ZM120.327 59.009L120.271 59.751H114.979L114.335 59.009H120.327ZM128.049 62.229L127.461 68.949H126.719L127.251 62.859H124.353L123.499 65.785C123.256 66.6156 123.014 67.2596 122.771 67.717C122.528 68.165 122.239 68.487 121.903 68.683C121.576 68.879 121.161 68.977 120.657 68.977L120.713 68.347C121.03 68.347 121.301 68.2723 121.525 68.123C121.758 67.9643 121.978 67.6936 122.183 67.311C122.388 66.919 122.594 66.373 122.799 65.673L123.807 62.229H128.049ZM135.125 68.949L134.551 68.977L134.411 67.745L134.691 67.577C134.569 67.7916 134.369 68.0156 134.089 68.249C133.809 68.473 133.487 68.669 133.123 68.837C132.759 68.9956 132.399 69.075 132.045 69.075C131.279 69.075 130.645 68.8323 130.141 68.347C129.637 67.8616 129.385 67.1056 129.385 66.079C129.385 65.2203 129.562 64.4923 129.917 63.895C130.271 63.2976 130.724 62.8496 131.275 62.551C131.825 62.2523 132.399 62.103 132.997 62.103C133.435 62.103 133.883 62.1636 134.341 62.285C134.807 62.397 135.199 62.5416 135.517 62.719L135.111 67.367L135.125 68.949ZM134.733 63.153C134.518 63.0223 134.252 62.915 133.935 62.831C133.627 62.747 133.323 62.705 133.025 62.705C132.53 62.705 132.063 62.8356 131.625 63.097C131.186 63.3583 130.831 63.7363 130.561 64.231C130.29 64.7256 130.155 65.309 130.155 65.981C130.155 66.8023 130.346 67.4136 130.729 67.815C131.111 68.207 131.597 68.403 132.185 68.403C132.549 68.403 132.927 68.291 133.319 68.067C133.72 67.843 134.075 67.5583 134.383 67.213L134.733 63.153ZM141.342 68.263C141.015 68.487 140.623 68.6783 140.166 68.837C139.718 68.9956 139.256 69.075 138.78 69.075C138.155 69.075 137.641 68.9256 137.24 68.627C136.848 68.319 136.652 67.9176 136.652 67.423C136.652 66.9936 136.759 66.639 136.974 66.359C137.198 66.079 137.464 65.8643 137.772 65.715C138.08 65.5656 138.491 65.4023 139.004 65.225C139.405 65.085 139.732 64.9543 139.984 64.833C140.245 64.7116 140.455 64.553 140.614 64.357C140.782 64.161 140.866 63.9136 140.866 63.615C140.866 63.335 140.749 63.1156 140.516 62.957C140.283 62.7983 139.975 62.719 139.592 62.719C139.247 62.719 138.892 62.7796 138.528 62.901C138.173 63.0223 137.856 63.1763 137.576 63.363L137.394 62.789C137.693 62.593 138.038 62.4296 138.43 62.299C138.831 62.159 139.237 62.089 139.648 62.089C140.236 62.089 140.707 62.215 141.062 62.467C141.426 62.719 141.608 63.0736 141.608 63.531C141.608 63.9603 141.501 64.315 141.286 64.595C141.071 64.8656 140.81 65.0803 140.502 65.239C140.194 65.3883 139.788 65.5516 139.284 65.729C138.883 65.869 138.551 65.9996 138.29 66.121C138.038 66.2423 137.828 66.4056 137.66 66.611C137.492 66.807 137.408 67.059 137.408 67.367C137.408 67.6843 137.539 67.941 137.8 68.137C138.071 68.333 138.43 68.431 138.878 68.431C139.27 68.431 139.671 68.361 140.082 68.221C140.493 68.0716 140.857 67.8943 141.174 67.689L141.342 68.263ZM146.215 62.103C146.794 62.103 147.302 62.2383 147.741 62.509C148.189 62.7796 148.53 63.153 148.763 63.629C149.006 64.0956 149.127 64.6323 149.127 65.239C149.127 65.9296 148.968 66.569 148.651 67.157C148.343 67.745 147.923 68.2116 147.391 68.557C146.859 68.9023 146.266 69.075 145.613 69.075C145.025 69.075 144.512 68.9396 144.073 68.669C143.634 68.3983 143.294 68.025 143.051 67.549C142.818 67.073 142.701 66.5363 142.701 65.939C142.701 65.2483 142.855 64.609 143.163 64.021C143.471 63.433 143.891 62.9663 144.423 62.621C144.964 62.2756 145.562 62.103 146.215 62.103ZM146.159 62.733C145.655 62.733 145.198 62.8776 144.787 63.167C144.376 63.4563 144.054 63.8436 143.821 64.329C143.588 64.8143 143.471 65.337 143.471 65.897C143.471 66.3823 143.56 66.8163 143.737 67.199C143.924 67.5816 144.18 67.8803 144.507 68.095C144.843 68.3096 145.226 68.417 145.655 68.417C146.159 68.417 146.616 68.277 147.027 67.997C147.447 67.7076 147.774 67.3203 148.007 66.835C148.25 66.3496 148.371 65.827 148.371 65.267C148.371 64.7816 148.278 64.3476 148.091 63.965C147.904 63.5823 147.643 63.2836 147.307 63.069C146.98 62.845 146.598 62.733 146.159 62.733ZM152.179 58.547C153.728 59.0043 154.881 59.7463 155.637 60.773C156.393 61.7996 156.771 63.0876 156.771 64.637C156.771 65.561 156.612 66.359 156.295 67.031C155.977 67.6936 155.543 68.2023 154.993 68.557C154.451 68.9023 153.845 69.075 153.173 69.075C152.594 69.075 152.09 68.935 151.661 68.655C151.231 68.375 150.895 67.9923 150.653 67.507C150.419 67.0216 150.303 66.4756 150.303 65.869C150.303 65.197 150.452 64.5716 150.751 63.993C151.059 63.4143 151.465 62.957 151.969 62.621C152.482 62.285 153.037 62.117 153.635 62.117C154.195 62.117 154.671 62.257 155.063 62.537C155.464 62.8076 155.749 63.153 155.917 63.573H155.945C155.823 62.5183 155.427 61.613 154.755 60.857C154.092 60.0916 153.14 59.527 151.899 59.163L152.179 58.547ZM153.761 62.733C153.266 62.733 152.813 62.8776 152.403 63.167C151.992 63.447 151.665 63.825 151.423 64.301C151.189 64.7676 151.073 65.281 151.073 65.841C151.073 66.3263 151.161 66.765 151.339 67.157C151.525 67.549 151.782 67.857 152.109 68.081C152.435 68.305 152.818 68.417 153.257 68.417C153.77 68.417 154.232 68.2816 154.643 68.011C155.063 67.731 155.389 67.353 155.623 66.877C155.856 66.3916 155.973 65.855 155.973 65.267C155.973 64.791 155.879 64.3616 155.693 63.979C155.515 63.5963 155.259 63.293 154.923 63.069C154.596 62.845 154.209 62.733 153.761 62.733ZM159.372 59.513C159.521 59.513 159.642 59.5596 159.736 59.653C159.829 59.737 159.876 59.849 159.876 59.989C159.876 60.1476 159.82 60.283 159.708 60.395C159.596 60.4976 159.456 60.549 159.288 60.549C159.148 60.549 159.031 60.507 158.938 60.423C158.844 60.3296 158.798 60.213 158.798 60.073C158.798 59.9143 158.849 59.7836 158.952 59.681C159.064 59.569 159.204 59.513 159.372 59.513ZM158.924 68.949H158.182L158.77 62.229H159.512L158.924 68.949ZM165.842 67.759C165.459 68.1323 165.016 68.445 164.512 68.697C164.017 68.949 163.569 69.075 163.168 69.075C162.402 69.075 161.856 68.8463 161.53 68.389C161.203 67.9316 161.077 67.2363 161.152 66.303L161.502 62.229H162.244L161.908 66.219C161.852 66.9376 161.936 67.4836 162.16 67.857C162.384 68.2303 162.804 68.417 163.42 68.417C163.774 68.417 164.18 68.291 164.638 68.039C165.104 67.7776 165.501 67.493 165.828 67.185L166.262 62.229H167.004L166.416 68.949H165.744L165.842 67.759ZM163.546 59.373C163.546 59.6903 163.639 59.947 163.826 60.143C164.012 60.3296 164.25 60.423 164.54 60.423C164.848 60.423 165.114 60.3156 165.338 60.101C165.571 59.8863 165.702 59.6063 165.73 59.261H166.206C166.159 59.7556 165.972 60.157 165.646 60.465C165.319 60.773 164.932 60.927 164.484 60.927C164.054 60.927 163.709 60.7916 163.448 60.521C163.186 60.2503 163.056 59.8863 163.056 59.429V59.261H163.546V59.373ZM169.847 62.229L169.595 65.169H173.641L173.893 62.229H174.635L174.047 68.949H173.305L173.571 65.799H169.525L169.259 68.949H168.517L169.105 62.229H169.847ZM180.963 67.759C180.58 68.1323 180.137 68.445 179.633 68.697C179.138 68.949 178.69 69.075 178.289 69.075C177.523 69.075 176.977 68.8463 176.651 68.389C176.324 67.9316 176.198 67.2363 176.273 66.303L176.623 62.229H177.365L177.029 66.219C176.973 66.9376 177.057 67.4836 177.281 67.857C177.505 68.2303 177.925 68.417 178.541 68.417C178.895 68.417 179.301 68.291 179.759 68.039C180.225 67.7776 180.622 67.493 180.949 67.185L181.383 62.229H182.125L181.537 68.949H180.865L180.963 67.759ZM188.469 67.759C188.086 68.1323 187.643 68.445 187.139 68.697C186.644 68.949 186.196 69.075 185.795 69.075C185.029 69.075 184.483 68.8463 184.157 68.389C183.83 67.9316 183.704 67.2363 183.779 66.303L184.129 62.229H184.871L184.535 66.219C184.479 66.9376 184.563 67.4836 184.787 67.857C185.011 68.2303 185.431 68.417 186.047 68.417C186.401 68.417 186.807 68.291 187.265 68.039C187.731 67.7776 188.128 67.493 188.455 67.185L188.889 62.229H189.631L189.043 68.949H188.371L188.469 67.759ZM186.173 59.373C186.173 59.6903 186.266 59.947 186.453 60.143C186.639 60.3296 186.877 60.423 187.167 60.423C187.475 60.423 187.741 60.3156 187.965 60.101C188.198 59.8863 188.329 59.6063 188.357 59.261H188.833C188.786 59.7556 188.599 60.157 188.273 60.465C187.946 60.773 187.559 60.927 187.111 60.927C186.681 60.927 186.336 60.7916 186.075 60.521C185.813 60.2503 185.683 59.8863 185.683 59.429V59.261H186.173V59.373ZM198.805 62.047C199.543 62.047 200.201 62.1916 200.779 62.481C201.367 62.761 201.825 63.153 202.151 63.657C202.487 64.1516 202.655 64.7116 202.655 65.337C202.655 66.0463 202.455 66.6903 202.053 67.269C201.661 67.8383 201.125 68.291 200.443 68.627C199.762 68.9536 199.011 69.117 198.189 69.117C197.452 69.117 196.789 68.977 196.201 68.697C195.613 68.4076 195.156 68.0156 194.829 67.521C194.503 67.017 194.339 66.4523 194.339 65.827C194.339 65.1176 194.535 64.4736 194.927 63.895C195.329 63.3163 195.87 62.8636 196.551 62.537C197.233 62.2103 197.984 62.047 198.805 62.047ZM198.259 68.445C198.931 68.445 199.543 68.3096 200.093 68.039C200.653 67.7683 201.092 67.3996 201.409 66.933C201.736 66.4663 201.899 65.9483 201.899 65.379C201.899 64.8656 201.764 64.4083 201.493 64.007C201.223 63.6056 200.849 63.2883 200.373 63.055C199.897 62.8216 199.356 62.705 198.749 62.705C198.096 62.705 197.489 62.8403 196.929 63.111C196.379 63.3816 195.935 63.7503 195.599 64.217C195.273 64.6743 195.109 65.1923 195.109 65.771C195.109 66.275 195.24 66.7323 195.501 67.143C195.772 67.5443 196.145 67.8616 196.621 68.095C197.107 68.3283 197.653 68.445 198.259 68.445ZM198.273 72.449H197.559L198.763 58.631H199.477L198.273 72.449ZM207.328 62.103C207.907 62.103 208.416 62.2383 208.854 62.509C209.302 62.7796 209.643 63.153 209.876 63.629C210.119 64.0956 210.24 64.6323 210.24 65.239C210.24 65.9296 210.082 66.569 209.764 67.157C209.456 67.745 209.036 68.2116 208.504 68.557C207.972 68.9023 207.38 69.075 206.726 69.075C206.138 69.075 205.625 68.9396 205.186 68.669C204.748 68.3983 204.407 68.025 204.164 67.549C203.931 67.073 203.814 66.5363 203.814 65.939C203.814 65.2483 203.968 64.609 204.276 64.021C204.584 63.433 205.004 62.9663 205.536 62.621C206.078 62.2756 206.675 62.103 207.328 62.103ZM207.272 62.733C206.768 62.733 206.311 62.8776 205.9 63.167C205.49 63.4563 205.168 63.8436 204.934 64.329C204.701 64.8143 204.584 65.337 204.584 65.897C204.584 66.3823 204.673 66.8163 204.85 67.199C205.037 67.5816 205.294 67.8803 205.62 68.095C205.956 68.3096 206.339 68.417 206.768 68.417C207.272 68.417 207.73 68.277 208.14 67.997C208.56 67.7076 208.887 67.3203 209.12 66.835C209.363 66.3496 209.484 65.827 209.484 65.267C209.484 64.7816 209.391 64.3476 209.204 63.965C209.018 63.5823 208.756 63.2836 208.42 63.069C208.094 62.845 207.711 62.733 207.272 62.733ZM212.914 62.229L212.662 65.169H216.708L216.96 62.229H217.702L217.114 68.949H216.372L216.638 65.799H212.592L212.326 68.949H211.584L212.172 62.229H212.914ZM220.907 58.547C222.456 59.0043 223.609 59.7463 224.365 60.773C225.121 61.7996 225.499 63.0876 225.499 64.637C225.499 65.561 225.34 66.359 225.023 67.031C224.706 67.6936 224.272 68.2023 223.721 68.557C223.18 68.9023 222.573 69.075 221.901 69.075C221.322 69.075 220.818 68.935 220.389 68.655C219.96 68.375 219.624 67.9923 219.381 67.507C219.148 67.0216 219.031 66.4756 219.031 65.869C219.031 65.197 219.18 64.5716 219.479 63.993C219.787 63.4143 220.193 62.957 220.697 62.621C221.21 62.285 221.766 62.117 222.363 62.117C222.923 62.117 223.399 62.257 223.791 62.537C224.192 62.8076 224.477 63.153 224.645 63.573H224.673C224.552 62.5183 224.155 61.613 223.483 60.857C222.82 60.0916 221.868 59.527 220.627 59.163L220.907 58.547ZM222.489 62.733C221.994 62.733 221.542 62.8776 221.131 63.167C220.72 63.447 220.394 63.825 220.151 64.301C219.918 64.7676 219.801 65.281 219.801 65.841C219.801 66.3263 219.89 66.765 220.067 67.157C220.254 67.549 220.51 67.857 220.837 68.081C221.164 68.305 221.546 68.417 221.985 68.417C222.498 68.417 222.96 68.2816 223.371 68.011C223.791 67.731 224.118 67.353 224.351 66.877C224.584 66.3916 224.701 65.855 224.701 65.267C224.701 64.791 224.608 64.3616 224.421 63.979C224.244 63.5963 223.987 63.293 223.651 63.069C223.324 62.845 222.937 62.733 222.489 62.733Z" fill="#1683B5"/>
<defs>
<filter id="filter0_b_91_228" x="-11.2927" y="-3.1189" width="79.5854" height="109.925" filterUnits="userSpaceOnUse" color-interpolation-filters="sRGB">
<feFlood flood-opacity="0" result="BackgroundImageFix"/>
<feGaussianBlur in="BackgroundImageFix" stdDeviation="6"/>
<feComposite in2="SourceAlpha" operator="in" result="effect1_backgroundBlur_91_228"/>
<feBlend mode="normal" in="SourceGraphic" in2="effect1_backgroundBlur_91_228" result="shape"/>
</filter>
<linearGradient id="paint0_linear_91_228" x1="46.817" y1="96.898" x2="46.413" y2="67.721" gradientUnits="userSpaceOnUse">
<stop stop-color="#1FD5DC"/>
<stop offset="1" stop-color="#005084"/>
</linearGradient>
<linearGradient id="paint1_linear_91_228" x1="10.0893" y1="78.7896" x2="53.6407" y2="49.1609" gradientUnits="userSpaceOnUse">
<stop stop-color="#23E9E9"/>
<stop offset="1" stop-color="#157DB1"/>
</linearGradient>
</defs>
</svg>
