<svg width="18" height="22" viewBox="0 0 18 22" fill="none" xmlns="http://www.w3.org/2000/svg">
<path d="M6.00085 10C6.00085 9.44771 6.44857 9 7.00085 9C7.55314 9 8.00085 9.44771 8.00085 10V16C8.00085 16.5523 7.55314 17 7.00085 17C6.44857 17 6.00085 16.5523 6.00085 16V10Z" fill="#6E717C"/>
<path d="M11.0009 9C10.4486 9 10.0009 9.44771 10.0009 10V16C10.0009 16.5523 10.4486 17 11.0009 17C11.5531 17 12.0009 16.5523 12.0009 16V10C12.0009 9.44771 11.5531 9 11.0009 9Z" fill="#6E717C"/>
<path fill-rule="evenodd" clip-rule="evenodd" d="M5.53199 0C2.5245 0 0.197564 2.63591 0.570597 5.62017L2.28959 19.3721C2.47725 20.8734 3.75345 22 5.26642 22H12.7353C14.2483 22 15.5245 20.8734 15.7121 19.3721L17.4311 5.62017C17.8042 2.63591 15.4772 0 12.4697 0H5.53199ZM2.70234 4C3.11151 2.8455 4.2126 2 5.53199 2H12.4697C13.7891 2 14.8902 2.8455 15.2994 4H2.70234ZM2.63364 6L4.27414 19.124C4.3367 19.6245 4.7621 20 5.26642 20H12.7353C13.2396 20 13.665 19.6245 13.7276 19.124L15.3681 6H2.63364Z" fill="#6E717C"/>
</svg>
