<svg width="35" height="35" viewBox="0 0 35 35" fill="none" xmlns="http://www.w3.org/2000/svg">
<path d="M31.5 24.7188C31.2083 26.25 29.9687 27.4167 28.4375 27.6354C26.0312 28 22.0208 28.4375 17.5 28.4375C13.052 28.4375 9.04163 28 6.56246 27.6354C5.03121 27.4167 3.79163 26.25 3.49996 24.7188C3.20829 23.0417 2.91663 20.5625 2.91663 17.5C2.91663 14.4375 3.20829 11.9583 3.49996 10.2812C3.79163 8.75 5.03121 7.58333 6.56246 7.36458C8.96871 7 12.9791 6.5625 17.5 6.5625C22.0208 6.5625 25.9583 7 28.4375 7.36458C29.9687 7.58333 31.2083 8.75 31.5 10.2812C31.7916 11.9583 32.1562 14.4375 32.1562 17.5C32.0833 20.5625 31.7916 23.0417 31.5 24.7188Z" fill="#FF3D00"/>
<path d="M14.5834 22.6041V12.3958L23.3334 17.4999L14.5834 22.6041Z" fill="white"/>
</svg>
